<?xml version="1.0" encoding="UTF-8" standalone="no"?>
<svg
   width="68.373215"
   height="35.000195"
   viewBox="0 0 68.373215 35.000195"
   fill="none"
   version="1.1"
   id="svg4"
   sodipodi:docname="black_arrow.svg"
   inkscape:version="1.1.2 (b8e25be833, 2022-02-05)"
   xmlns:inkscape="http://www.inkscape.org/namespaces/inkscape"
   xmlns:sodipodi="http://sodipodi.sourceforge.net/DTD/sodipodi-0.dtd"
   xmlns="http://www.w3.org/2000/svg"
   xmlns:svg="http://www.w3.org/2000/svg">
  <defs
     id="defs8" />
  <sodipodi:namedview
     id="namedview6"
     pagecolor="#ffffff"
     bordercolor="#666666"
     borderopacity="1.0"
     inkscape:pageshadow="2"
     inkscape:pageopacity="0.0"
     inkscape:pagecheckerboard="0"
     showgrid="false"
     fit-margin-top="0"
     fit-margin-left="0"
     fit-margin-right="0"
     fit-margin-bottom="0"
     inkscape:zoom="7.9577465"
     inkscape:cx="19.226549"
     inkscape:cy="20.231858"
     inkscape:window-width="1920"
     inkscape:window-height="1091"
     inkscape:window-x="-8"
     inkscape:window-y="-8"
     inkscape:window-maximized="1"
     inkscape:current-layer="svg4" />
  <path
     d="m 52.542622,27.179202 v 9.8e-5 l -0.004,0.0025 c -2.907118,1.882001 -5.598779,3.470365 -8.001156,4.721539 -1.344519,0.701446 -2.823383,1.412397 -4.205398,1.948642 -1.374439,0.533238 -2.680685,0.904866 -3.670059,0.904866 -0.645303,0 -1.217362,-0.159186 -1.554924,-0.607448 l -9.8e-5,-9.8e-5 c -0.341449,-0.454082 -0.331442,-1.056193 -0.144545,-1.685661 0.188647,-0.63519 0.572934,-1.355066 1.068349,-2.104917 0.992581,-1.502418 2.468142,-3.180028 3.858316,-4.632682 1.037168,-1.084519 2.225486,-2.248874 3.543583,-3.473176 -4.214045,0.373372 -8.932539,0.569905 -13.74963,0.569905 -7.08483,0 -14.397068,-0.440307 -19.9430037,-1.290462 C 6.969283,21.107544 4.6265598,20.578672 2.9710071,19.945712 2.1443819,19.629669 1.4739681,19.282099 1.006014,18.898055 0.53886635,18.514593 0.24334601,18.068272 0.24334601,17.558218 c 0,-0.510053 0.29552034,-0.956375 0.76265839,-1.339837 0.4679539,-0.384141 1.1383678,-0.73171 1.964993,-1.047753 1.6555527,-0.633057 3.9982758,-1.162124 6.7691729,-1.587007 5.5459367,-0.850446 12.8581737,-1.290947 19.9430037,-1.290947 5.068588,0 9.985831,0.214479 14.346653,0.622774 -1.84858,-1.397847 -3.488211,-2.720901 -4.889557,-3.9453892 l -9.8e-5,-8.79e-5 C 37.626727,7.6461016 36.008175,6.1056673 34.886205,4.6971796 34.326191,3.9941435 33.879636,3.3113233 33.635425,2.6954756 33.393352,2.0851862 33.330016,1.4864308 33.629985,1.0042272 v -3.91e-5 c 0.300164,-0.48232934 0.865812,-0.69131664 1.521218,-0.74547663 0.661234,-0.0546499 1.472259,0.0422061 2.351671,0.23168838 1.761832,0.37961081 3.861909,1.14561305 5.720592,1.91432175 2.495631,1.0312244 5.317266,2.3753394 8.39098,3.9958223 l 0.0021,0.00113 2.343996,1.2651914 v -9.77e-5 l 0.0063,0.00365 3.369991,1.9513194 v 0 l 0.0029,0.0016 c 3.261972,1.946896 6.618948,3.9907 9.977866,6.074179 v 9.8e-5 l 0.323671,0.200802 0.301232,0.187026 -0.283553,0.212829 -0.303855,0.22806 c 0,0 0,0 -9.7e-5,9.8e-5 -2.921106,2.20105 -6.082052,4.533444 -9.393856,6.935101 l -9.73e-4,7.72e-4 -1.409894,1.011281 9.7e-5,9.7e-5 -0.0058,0.0039 z m -8.47083,3.831321 h 9.7e-5 c 2.370126,-1.235265 5.033812,-2.807138 7.915964,-4.672551 2.92e-4,-1.95e-4 5.84e-4,-2.93e-4 7.77e-4,-4.88e-4 l 2.211498,-1.459737 3.169299,-2.231702 c 4.86e-4,-3.91e-4 9.71e-4,-6.75e-4 0.0015,-0.0011 3.084594,-2.237135 6.038436,-4.414128 8.788575,-6.480341 -3.144432,-1.94515 -6.282355,-3.853243 -9.335086,-5.676166 -9.9e-5,-9.8e-5 -1.95e-4,-1.96e-4 -3.89e-4,-2.93e-4 L 54.668246,9.2145024 51.140596,7.2892676 c -4.86e-4,-2.717e-4 -9.71e-4,-5.434e-4 -0.0016,-8.249e-4 C 48.093014,5.6826273 45.30023,4.3529079 42.837723,3.3361567 l -9.8e-5,-5.87e-5 C 39.26053,1.8564963 37.180367,1.3543388 35.979129,1.2582259 c -1.204248,-0.096365 -1.45584,0.2176119 -1.493726,0.2775902 -0.03614,0.058814 -0.205646,0.4221088 0.415372,1.4572134 0.619464,1.0326408 1.992542,2.67236 4.904421,5.2185449 l 9.6e-5,6.84e-5 c 1.736189,1.5194132 3.851905,3.1962472 6.286921,4.9845402 l 0.784992,0.57592 0.730591,0.536052 -0.901073,-0.09953 -0.96878,-0.106998 c -4.750161,-0.523922 -10.302022,-0.801939 -16.054769,-0.801939 -8.566706,0 -15.720993,0.581352 -20.7285078,1.431991 -2.5055307,0.42566 -4.463384,0.917088 -5.7893881,1.432283 -0.6643232,0.258131 -1.1565817,0.517232 -1.4783784,0.767991 -0.3281692,0.255803 -0.4351498,0.467372 -0.4351498,0.626266 0,0.158894 0.1069806,0.370463 0.4351498,0.626266 0.3217869,0.250759 0.8140455,0.509763 1.4783687,0.767797 1.3260041,0.515195 3.2838574,1.00643 5.7893786,1.431993 5.007534,0.850347 12.161821,1.431505 20.728527,1.431505 5.365254,0 10.603351,-0.244452 15.146119,-0.707362 l 0.791207,-0.08051 0.734285,-0.07469 -0.546415,0.495503 -0.58906,0.534208 -1.93e-4,1.95e-4 c -1.750566,1.58429 -3.298011,3.077881 -4.601051,4.438961 -2.673982,2.793851 -3.895716,4.54887 -4.420855,5.632516 -0.528056,1.089951 -0.323673,1.435678 -0.283263,1.489322 l 9.8e-5,9.8e-5 c 0.03992,0.05316 0.315026,0.345825 1.509852,0.142598 1.188025,-0.202159 3.216024,-0.886241 6.647894,-2.676085 z"
     fill="#333b41"
     stroke="#333b41"
     stroke-width="0.486692"
     id="path2" />
</svg>
