<svg width="574" height="474" viewBox="0 0 574 474" fill="none" xmlns="http://www.w3.org/2000/svg">
<circle cx="232.5" cy="232.5" r="232.5" fill="url(#paint0_linear_56145_666)"/>
<path d="M205.999 128.16L216.191 74.288H231.739L214.943 150H199.239L186.915 99.352L174.591 150H158.887L142.091 74.288H157.639L167.883 128.056L180.363 74.288H193.571L205.999 128.16ZM280.671 134.4H253.319L248.119 150H231.531L259.715 74.288H274.171L302.511 150H285.923L280.671 134.4ZM257.531 121.764H276.459L266.943 93.424L257.531 121.764ZM360.335 86.924H337.143V150H321.543V86.924H298.663V74.288H360.335V86.924ZM427.259 124.78C426.669 132.927 423.653 139.34 418.211 144.02C412.803 148.7 405.661 151.04 396.787 151.04C387.08 151.04 379.436 147.781 373.855 141.264C368.308 134.712 365.535 125.733 365.535 114.328V109.7C365.535 102.42 366.817 96.0067 369.383 90.46C371.948 84.9133 375.605 80.6667 380.355 77.72C385.139 74.7387 390.685 73.248 396.995 73.248C405.731 73.248 412.768 75.588 418.107 80.268C423.445 84.948 426.531 91.5173 427.363 99.976H411.763C411.381 95.088 410.012 91.552 407.655 89.368C405.332 87.1493 401.779 86.04 396.995 86.04C391.795 86.04 387.895 87.912 385.295 91.656C382.729 95.3653 381.412 101.137 381.343 108.972V114.692C381.343 122.873 382.573 128.853 385.035 132.632C387.531 136.411 391.448 138.3 396.787 138.3C401.605 138.3 405.193 137.208 407.551 135.024C409.943 132.805 411.312 129.391 411.659 124.78H427.259ZM499.123 150H483.523V117.552H453.103V150H437.503V74.288H453.103V104.968H483.523V74.288H499.123V150ZM218.063 188.4L233.819 154.288H250.875L226.019 202.544V230H210.159V202.544L185.303 154.288H202.411L218.063 188.4ZM318.423 193.86C318.423 201.313 317.105 207.848 314.471 213.464C311.836 219.08 308.057 223.413 303.135 226.464C298.247 229.515 292.631 231.04 286.287 231.04C280.012 231.04 274.413 229.532 269.491 226.516C264.568 223.5 260.755 219.201 258.051 213.62C255.347 208.004 253.977 201.556 253.943 194.276V190.532C253.943 183.079 255.277 176.527 257.947 170.876C260.651 165.191 264.447 160.84 269.335 157.824C274.257 154.773 279.873 153.248 286.183 153.248C292.492 153.248 298.091 154.773 302.979 157.824C307.901 160.84 311.697 165.191 314.367 170.876C317.071 176.527 318.423 183.061 318.423 190.48V193.86ZM302.615 190.428C302.615 182.489 301.193 176.457 298.351 172.332C295.508 168.207 291.452 166.144 286.183 166.144C280.948 166.144 276.909 168.189 274.067 172.28C271.224 176.336 269.785 182.299 269.751 190.168V193.86C269.751 201.591 271.172 207.588 274.015 211.852C276.857 216.116 280.948 218.248 286.287 218.248C291.521 218.248 295.543 216.203 298.351 212.112C301.159 207.987 302.58 201.989 302.615 194.12V190.428ZM387.063 154.288V204.156C387.063 212.441 384.463 218.993 379.263 223.812C374.097 228.631 367.025 231.04 358.047 231.04C349.207 231.04 342.187 228.7 336.987 224.02C331.787 219.34 329.135 212.909 329.031 204.728V154.288H344.631V204.26C344.631 209.217 345.809 212.84 348.167 215.128C350.559 217.381 353.852 218.508 358.047 218.508C366.817 218.508 371.272 213.897 371.411 204.676V154.288H387.063ZM427.883 202.284H415.455V230H399.855V154.288H427.987C436.931 154.288 443.829 156.281 448.683 160.268C453.536 164.255 455.963 169.888 455.963 177.168C455.963 182.333 454.836 186.649 452.583 190.116C450.364 193.548 446.984 196.287 442.443 198.332L458.823 229.272V230H442.079L427.883 202.284ZM415.455 189.648H428.039C431.956 189.648 434.989 188.66 437.139 186.684C439.288 184.673 440.363 181.917 440.363 178.416C440.363 174.845 439.34 172.037 437.295 169.992C435.284 167.947 432.181 166.924 427.987 166.924H415.455V189.648ZM171.887 374.4H144.535L139.335 390H122.747L150.931 314.288H165.387L193.727 390H177.139L171.887 374.4ZM148.747 361.764H167.675L158.159 333.424L148.747 361.764ZM262.367 390H246.767L216.399 340.184V390H200.799V314.288H216.399L246.819 364.208V314.288H262.367V390ZM292.579 390H276.979V314.288H292.579V390ZM327.471 314.288L346.919 369.2L366.263 314.288H386.751V390H371.099V369.304L372.659 333.58L352.223 390H341.511L321.127 333.632L322.687 369.304V390H307.087V314.288H327.471ZM444.055 374.4H416.703L411.503 390H394.915L423.099 314.288H437.555L465.895 390H449.307L444.055 374.4ZM420.915 361.764H439.843L430.327 333.424L420.915 361.764ZM488.567 377.468H521.691V390H472.967V314.288H488.567V377.468ZM205.791 433.86C205.791 441.313 204.473 447.848 201.839 453.464C199.204 459.08 195.425 463.413 190.503 466.464C185.615 469.515 179.999 471.04 173.655 471.04C167.38 471.04 161.781 469.532 156.859 466.516C151.936 463.5 148.123 459.201 145.419 453.62C142.715 448.004 141.345 441.556 141.311 434.276V430.532C141.311 423.079 142.645 416.527 145.315 410.876C148.019 405.191 151.815 400.84 156.703 397.824C161.625 394.773 167.241 393.248 173.551 393.248C179.86 393.248 185.459 394.773 190.347 397.824C195.269 400.84 199.065 405.191 201.735 410.876C204.439 416.527 205.791 423.061 205.791 430.48V433.86ZM189.983 430.428C189.983 422.489 188.561 416.457 185.719 412.332C182.876 408.207 178.82 406.144 173.551 406.144C168.316 406.144 164.277 408.189 161.435 412.28C158.592 416.336 157.153 422.299 157.119 430.168V433.86C157.119 441.591 158.54 447.588 161.383 451.852C164.225 456.116 168.316 458.248 173.655 458.248C178.889 458.248 182.911 456.203 185.719 452.112C188.527 447.987 189.948 441.989 189.983 434.12V430.428ZM278.695 470H263.095L232.727 420.184V470H217.127V394.288H232.727L263.147 444.208V394.288H278.695V470ZM307.919 457.468H341.043V470H292.319V394.288H307.919V457.468ZM366.627 470H351.027V394.288H366.627V470ZM442.703 470H427.103L396.735 420.184V470H381.135V394.288H396.735L427.155 444.208V394.288H442.703V470ZM501.879 437.188H471.927V457.468H507.079V470H456.327V394.288H506.975V406.924H471.927V424.968H501.879V437.188Z" fill="white"/>
<path d="M134.551 279.06H104.599V310H88.9987V234.288H138.295V246.924H104.599V266.476H134.551V279.06ZM180.103 294.4H152.751L147.551 310H130.963L159.147 234.288H173.603L201.943 310H185.355L180.103 294.4ZM156.963 281.764H175.891L166.375 253.424L156.963 281.764ZM232.935 291.228L250.095 234.288H267.463L241.099 310H224.823L198.563 234.288H215.879L232.935 291.228ZM336.103 273.86C336.103 281.313 334.785 287.848 332.151 293.464C329.516 299.08 325.737 303.413 320.815 306.464C315.927 309.515 310.311 311.04 303.967 311.04C297.692 311.04 292.093 309.532 287.171 306.516C282.248 303.5 278.435 299.201 275.731 293.62C273.027 288.004 271.657 281.556 271.623 274.276V270.532C271.623 263.079 272.957 256.527 275.627 250.876C278.331 245.191 282.127 240.84 287.015 237.824C291.937 234.773 297.553 233.248 303.863 233.248C310.172 233.248 315.771 234.773 320.659 237.824C325.581 240.84 329.377 245.191 332.047 250.876C334.751 256.527 336.103 263.061 336.103 270.48V273.86ZM320.295 270.428C320.295 262.489 318.873 256.457 316.031 252.332C313.188 248.207 309.132 246.144 303.863 246.144C298.628 246.144 294.589 248.189 291.747 252.28C288.904 256.336 287.465 262.299 287.431 270.168V273.86C287.431 281.591 288.852 287.588 291.695 291.852C294.537 296.116 298.628 298.248 303.967 298.248C309.201 298.248 313.223 296.203 316.031 292.112C318.839 287.987 320.26 281.989 320.295 274.12V270.428ZM375.467 282.284H363.039V310H347.439V234.288H375.571C384.515 234.288 391.413 236.281 396.267 240.268C401.12 244.255 403.547 249.888 403.547 257.168C403.547 262.333 402.42 266.649 400.167 270.116C397.948 273.548 394.568 276.287 390.027 278.332L406.407 309.272V310H389.663L375.467 282.284ZM363.039 269.648H375.623C379.54 269.648 382.573 268.66 384.723 266.684C386.872 264.673 387.947 261.917 387.947 258.416C387.947 254.845 386.924 252.037 384.879 249.992C382.868 247.947 379.765 246.924 375.571 246.924H363.039V269.648ZM432.043 310H416.443V234.288H432.043V310ZM501.983 246.924H478.791V310H463.191V246.924H440.311V234.288H501.983V246.924ZM556.479 277.188H526.527V297.468H561.679V310H510.927V234.288H561.575V246.924H526.527V264.968H556.479V277.188Z" fill="#FFEE2E"/>
<defs>
<linearGradient id="paint0_linear_56145_666" x1="-20.6013" y1="68.8889" x2="540.009" y2="318.061" gradientUnits="userSpaceOnUse">
<stop stop-color="#F9804B"/>
<stop offset="1" stop-color="#FE9013"/>
</linearGradient>
</defs>
</svg>
