<?xml version="1.0" encoding="UTF-8" standalone="no"?>
<svg
   width="88"
   height="27.999998"
   viewBox="0 0 88 27.999998"
   fill="none"
   version="1.1"
   id="svg4"
   sodipodi:docname="green_arrow.svg"
   inkscape:version="1.1.2 (b8e25be833, 2022-02-05)"
   xmlns:inkscape="http://www.inkscape.org/namespaces/inkscape"
   xmlns:sodipodi="http://sodipodi.sourceforge.net/DTD/sodipodi-0.dtd"
   xmlns="http://www.w3.org/2000/svg"
   xmlns:svg="http://www.w3.org/2000/svg">
  <defs
     id="defs8" />
  <sodipodi:namedview
     id="namedview6"
     pagecolor="#ffffff"
     bordercolor="#666666"
     borderopacity="1.0"
     inkscape:pageshadow="2"
     inkscape:pageopacity="0.0"
     inkscape:pagecheckerboard="0"
     showgrid="false"
     fit-margin-top="0"
     fit-margin-left="0"
     fit-margin-right="0"
     fit-margin-bottom="0"
     inkscape:zoom="4.4889363"
     inkscape:cx="8.2424872"
     inkscape:cy="48.341073"
     inkscape:window-width="1920"
     inkscape:window-height="1091"
     inkscape:window-x="-8"
     inkscape:window-y="-8"
     inkscape:window-maximized="1"
     inkscape:current-layer="svg4" />
  <path
     d="M 0.02211668,16.119569 C 0.42957854,16.843087 5.2683746,14.593091 13.104896,11.553592 17.643659,9.7850704 22.300979,8.3414293 27.042199,7.233364 32.74217,5.9130139 38.598854,5.4077765 44.439157,5.7326164 c 5.783072,0.3692714 11.449983,1.8003889 16.720369,4.222487 4.416209,1.9813386 8.640449,4.3696306 12.618583,7.1343456 2.850785,1.993591 5.15053,3.814338 6.918212,5.225218 -0.895527,0.0054 -1.772976,0.01858 -2.610473,0.046 -2.167303,0.0707 -4.121762,0.212515 -5.765692,0.413381 -3.287862,0.401832 -5.33441,1.040283 -5.360179,1.819843 -0.02567,0.779559 1.974335,1.552792 5.228536,2.172763 1.627151,0.309936 3.567826,0.581607 5.725741,0.796533 1.078907,0.107463 2.21215,0.200765 3.387641,0.277596 0.587896,0.03364 1.18578,0.06779 1.793452,0.102542 l 0.917501,0.04158 c 0.19167,0.0041 0.202857,0.01697 0.630944,0.01486 0.30064,-0.0059 0.599482,-0.04831 0.890033,-0.126144 0.5011,-0.133676 0.963546,-0.385059 1.349284,-0.733461 0.385638,-0.348401 0.683581,-0.783878 0.869358,-1.270576 0.119657,-0.311643 0.196066,-0.638351 0.226829,-0.970984 0.01888,-0.197049 0.02487,-0.395103 0.01788,-0.592855 l -0.01588,-0.309832 c -0.02407,-0.384357 -0.06322,-0.757766 -0.113364,-1.118822 -0.09868,-0.678524 -0.232621,-1.351323 -0.401419,-2.015687 C 87.147395,19.609308 86.817291,18.565711 86.490482,17.514481 85.83327,15.436526 85.165969,13.584042 84.526435,12.047922 83.247667,8.9757529 82.080066,7.1691071 81.327068,7.3563239 80.57397,7.5435407 80.378005,9.6889564 80.669856,13.006553 c 0.145925,1.658749 0.413804,3.61046 0.795047,5.757011 0.04195,0.220048 0.0859,0.451244 0.128646,0.675712 C 79.942324,17.475412 78.147874,15.638094 76.224978,13.942487 72.322653,10.512505 68.005125,7.5920899 63.374772,5.2504284 57.604585,2.2612062 51.28136,0.50592169 44.803321,0.09516451 38.392401,-0.27386284 31.965201,0.43202319 25.784706,2.1839131 20.830041,3.586588 16.034586,5.5056684 11.476347,7.9099598 3.7717876,12.017391 -0.34067429,15.49327 0.02211668,16.119569 Z"
     fill="#468e0d"
     id="path2"
     style="stroke-width:1.00156" />
</svg>
