<?xml version="1.0" encoding="UTF-8" standalone="no"?>
<svg
   width="65"
   height="42"
   viewBox="0 0 65 42"
   fill="none"
   version="1.1"
   id="svg15"
   sodipodi:docname="logo_burger.svg"
   inkscape:version="1.1.2 (b8e25be833, 2022-02-05)"
   xmlns:inkscape="http://www.inkscape.org/namespaces/inkscape"
   xmlns:sodipodi="http://sodipodi.sourceforge.net/DTD/sodipodi-0.dtd"
   xmlns="http://www.w3.org/2000/svg"
   xmlns:svg="http://www.w3.org/2000/svg">
  <defs
     id="defs19" />
  <sodipodi:namedview
     id="namedview17"
     pagecolor="#ffffff"
     bordercolor="#666666"
     borderopacity="1.0"
     inkscape:pageshadow="2"
     inkscape:pageopacity="0"
     inkscape:pagecheckerboard="0"
     showgrid="false"
     fit-margin-top="0"
     fit-margin-left="0"
     fit-margin-right="0"
     fit-margin-bottom="0"
     inkscape:zoom="8"
     inkscape:cx="26"
     inkscape:cy="23.125"
     inkscape:window-width="1920"
     inkscape:window-height="1091"
     inkscape:window-x="-8"
     inkscape:window-y="-8"
     inkscape:window-maximized="1"
     inkscape:current-layer="svg15" />
  <path
     d="m 6.6412136,12.721865 v 4.275189 H 5.228332 V 6.0766171 h 3.9516476 c 1.1724684,0 2.0898924,0.3050201 2.7522014,0.9150399 0.667163,0.6100301 1.000744,1.4175668 1.000744,2.4226101 0,1.0600879 -0.326251,1.8776219 -0.978652,2.4526009 -0.647645,0.570032 -1.577254,0.854997 -2.7890059,0.854997 z m 0,-1.177527 h 2.538766 c 0.755467,0 1.3343554,-0.179946 1.7366944,-0.540041 0.402239,-0.364941 0.603359,-0.890037 0.603359,-1.5750343 0,-0.6500282 -0.20112,-1.1700446 -0.603359,-1.5600596 C 10.514335,7.4791782 9.9624944,7.276673 9.2609228,7.2616775 H 6.6412136 Z M 17.72344,17.147111 c -1.079211,0 -1.957401,-0.359994 -2.634373,-1.080083 -0.67697,-0.725035 -1.015506,-1.692524 -1.015506,-2.902567 v -0.255076 c 0,-0.805012 0.149601,-1.522576 0.448903,-2.152589 0.304157,-0.634963 0.726014,-1.1300165 1.265668,-1.4850419 0.54451,-0.3600136 1.133206,-0.5400205 1.766089,-0.5400205 1.035124,0 1.839702,0.3475124 2.413637,1.0425473 0.574033,0.6950241 0.86105,1.6900811 0.86105,2.9851501 v 0.577503 h -5.393973 c 0.01962,0.800064 0.247684,1.447548 0.684301,1.942552 0.441573,0.490056 1.000844,0.735033 1.677816,0.735033 0.480805,0 0.887999,-0.09997 1.22158,-0.300011 0.333582,-0.199941 0.625452,-0.465014 0.875713,-0.795016 l 0.831526,0.660005 c -0.667262,1.045042 -1.668006,1.567614 -3.002431,1.567614 z M 17.554221,9.8717872 c -0.549463,0 -1.010552,0.2050088 -1.383466,0.6149878 -0.372814,0.405031 -0.603359,0.975063 -0.691733,1.710095 h 3.988513 V 12.091852 C 19.4283,11.386809 19.241845,10.841821 18.908263,10.456784 18.574682,10.06679 18.123301,9.8717872 17.554221,9.8717872 Z m 6.703829,-2.955128 v 1.9650801 h 1.486503 V 9.9542878 H 24.25805 v 5.0327602 c 0,0.324953 0.06619,0.570032 0.198643,0.735033 0.132461,0.159952 0.358152,0.239928 0.677071,0.239928 0.156932,0 0.372814,-0.02999 0.647546,-0.08997 v 1.125018 c -0.358152,0.100071 -0.706397,0.150057 -1.044931,0.150057 -0.608314,0 -1.067025,-0.187521 -1.376136,-0.562561 -0.30901,-0.375039 -0.463566,-0.907506 -0.463566,-1.597502 V 9.9542878 H 21.44703 V 8.8817393 h 1.449647 V 6.9166592 Z m 6.453568,5.2127568 C 29.499946,11.774371 28.616901,11.339349 28.062484,10.824351 27.513021,10.304305 27.23829,9.6642733 27.23829,8.9042477 c 0,-0.8600463 0.336057,-1.5700767 1.008174,-2.1300914 0.677071,-0.5650333 1.555162,-0.8475449 2.634471,-0.8475449 0.735822,0 1.390799,0.1450071 1.964733,0.4350216 0.578889,0.2900144 1.025315,0.6900264 1.33928,1.2000559 0.318918,0.5100195 0.478327,1.0675399 0.478327,1.6725714 h -1.420223 c 0,-0.6600352 -0.206072,-1.1775576 -0.61812,-1.5525668 -0.412049,-0.3800178 -0.993414,-0.5700319 -1.743997,-0.5700319 -0.696686,0 -1.241196,0.1575086 -1.633628,0.4725256 -0.387576,0.3100085 -0.581364,0.7425359 -0.581364,1.2975521 0,0.4450186 0.18398,0.8225423 0.55194,1.1325507 0.372814,0.30506 1.003221,0.584977 1.89112,0.840052 0.892853,0.254975 1.58954,0.537517 2.089962,0.847525 0.505277,0.304959 0.878091,0.662529 1.118444,1.072508 0.245307,0.410079 0.36796,0.892561 0.36796,1.447548 0,0.885089 -0.338535,1.595079 -1.015506,2.130172 -0.676972,0.529943 -1.582109,0.795016 -2.715315,0.795016 -0.735921,0 -1.4227,-0.142483 -2.060538,-0.427549 -0.637737,-0.290015 -1.130729,-0.685049 -1.479072,-1.185001 -0.34339,-0.500053 -0.515085,-1.06756 -0.515085,-1.702623 h 1.420223 c 0,0.660005 0.237975,1.182577 0.713827,1.567613 0.480706,0.379988 1.120921,0.570032 1.920645,0.570032 0.745629,0 1.317186,-0.155004 1.714571,-0.465013 0.397384,-0.310008 0.596027,-0.732609 0.596027,-1.267601 0,-0.534992 -0.18398,-0.947495 -0.55194,-1.23751 -0.367861,-0.295063 -1.035123,-0.585077 -2.001588,-0.870043 z m 7.424987,-5.2127568 v 1.9650801 h 1.486503 v 1.0725485 h -1.486503 v 5.0327602 c 0,0.324953 0.06628,0.570032 0.198742,0.735033 0.132462,0.159952 0.358053,0.239928 0.676971,0.239928 0.157032,0 0.372815,-0.02999 0.647547,-0.08997 v 1.125018 c -0.358053,0.100071 -0.706397,0.150057 -1.044932,0.150057 -0.608313,0 -1.067025,-0.187521 -1.376036,-0.562561 -0.30911,-0.375039 -0.463665,-0.907506 -0.463665,-1.597502 V 9.9542878 H 35.325585 V 8.8817393 h 1.449647 V 6.9166592 Z m 2.575621,5.9477898 c 0,-0.795116 0.152078,-1.510054 0.456235,-2.145117 0.309012,-0.635043 0.735821,-1.1250579 1.28043,-1.4700762 0.549463,-0.3450081 1.174916,-0.5175222 1.876458,-0.5175222 1.084165,0 1.959877,0.3825221 2.62704,1.1475564 0.672117,0.765014 1.008176,1.782589 1.008176,3.052614 v 0.09755 c 0,0.789966 -0.149602,1.500056 -0.448904,2.13007 -0.294348,0.625066 -0.718681,1.112497 -1.273098,1.462595 -0.549364,0.349996 -1.182248,0.524995 -1.898551,0.524995 -1.079211,0 -1.954925,-0.382512 -2.627042,-1.147537 -0.667163,-0.765024 -1.000744,-1.777651 -1.000744,-3.037679 z m 1.368705,0.165002 c 0,0.900034 0.203596,1.622545 0.61079,2.167534 0.412048,0.54509 0.961511,0.817534 1.648291,0.817534 0.691732,0 1.241196,-0.274969 1.648389,-0.825006 0.407194,-0.554986 0.61079,-1.330007 0.61079,-2.325064 0,-0.890037 -0.20855,-1.610126 -0.625452,-2.160163 -0.412147,-0.554986 -0.96161,-0.8324988 -1.64839,-0.8324988 -0.672117,0 -1.214248,0.2724638 -1.626297,0.8175538 -0.412048,0.544989 -0.618121,1.325059 -0.618121,2.34011 z m 11.435493,-2.902669 c -0.206073,-0.03499 -0.429286,-0.0525 -0.669639,-0.0525 -0.892853,0 -1.498788,0.387541 -1.817608,1.162562 v 5.7602 H 49.667804 V 8.8817393 h 1.324518 l 0.0221,0.9375484 c 0.446426,-0.7250361 1.079309,-1.0875541 1.898551,-1.0875541 0.264923,0 0.466043,0.035 0.603457,0.105009 z m 3.995746,4.837747 1.854464,-6.0827897 h 1.456978 l -3.201074,9.3678697 c -0.495468,1.350102 -1.282807,2.025153 -2.362117,2.025153 l -0.257592,-0.02252 -0.507753,-0.09755 v -1.125019 l 0.36796,0.02999 c 0.461188,0 0.819241,-0.09502 1.074356,-0.284965 0.260069,-0.190044 0.473474,-0.537516 0.640215,-1.042618 l 0.301779,-0.825006 -2.840545,-8.0253417 h 1.486503 z M 12.896168,31.040841 c 0,-0.795116 0.152079,-1.510054 0.456235,-2.145117 0.309011,-0.635063 0.735821,-1.125018 1.28043,-1.470066 0.549463,-0.345049 1.174916,-0.517522 1.876457,-0.517522 1.084165,0 1.959879,0.382512 2.627042,1.147536 0.672116,0.765024 1.008174,1.782599 1.008174,3.052624 v 0.09755 c 0,0.789966 -0.149601,1.500057 -0.448903,2.13007 -0.294348,0.625067 -0.718682,1.112497 -1.273,1.462595 -0.549463,0.349996 -1.182346,0.524995 -1.898551,0.524995 -1.079309,0 -1.955023,-0.382513 -2.627139,-1.147537 -0.667163,-0.765024 -1.000745,-1.777651 -1.000745,-3.037679 z m 1.368705,0.165002 c 0,0.900034 0.203596,1.622545 0.61079,2.167535 0.412047,0.545089 0.96151,0.817533 1.648389,0.817533 0.691635,0 1.241098,-0.274968 1.648291,-0.825006 0.407194,-0.554986 0.61079,-1.330007 0.61079,-2.325064 0,-0.890037 -0.208451,-1.610125 -0.625453,-2.160163 -0.412147,-0.554986 -0.96161,-0.832479 -1.64839,-0.832479 -0.672117,0 -1.214149,0.272444 -1.626296,0.817534 -0.412048,0.544989 -0.618121,1.325059 -0.618121,2.34011 z m 8.874634,-4.147752 0.04419,1.0201 c 0.608313,-0.780071 1.403083,-1.170055 2.384211,-1.170055 1.682669,0 2.531435,0.967489 2.546097,2.902567 v 5.362743 h -1.361372 v -5.370215 c -0.0049,-0.584977 -0.137317,-1.017474 -0.397385,-1.297491 -0.255016,-0.280018 -0.654878,-0.420078 -1.199388,-0.420078 -0.441572,0 -0.829149,0.120066 -1.16273,0.359995 -0.333582,0.240029 -0.593551,0.555086 -0.780008,0.945071 v 5.782718 h -1.361373 v -8.115355 z m 8.506674,8.115355 H 30.284809 V 23.652945 h 1.361372 z m 3.66474,0 h -1.361373 v -8.115355 h 1.361373 z m -1.47184,-10.267945 c 0,-0.224983 0.06628,-0.415028 0.198742,-0.570032 0.137317,-0.155004 0.338535,-0.232455 0.60336,-0.232455 0.264923,0 0.466142,0.07745 0.603457,0.232455 0.137416,0.155004 0.206074,0.345049 0.206074,0.570032 0,0.225084 -0.06866,0.412604 -0.206074,0.562559 -0.137315,0.150057 -0.338534,0.224984 -0.603457,0.224984 -0.264825,0 -0.466043,-0.07493 -0.60336,-0.224984 -0.132462,-0.149955 -0.198742,-0.337475 -0.198742,-0.562559 z m 4.945169,2.15259 0.04409,1.0201 c 0.608313,-0.780071 1.403083,-1.170055 2.384211,-1.170055 1.682769,0 2.531435,0.967489 2.546197,2.902567 v 5.362743 h -1.361374 v -5.370215 c -0.005,-0.584977 -0.137414,-1.017474 -0.397385,-1.297491 -0.255114,-0.280018 -0.654977,-0.420078 -1.199486,-0.420078 -0.441571,0 -0.829049,0.120066 -1.16273,0.359995 -0.333581,0.240029 -0.593552,0.555086 -0.780008,0.945071 v 5.782718 H 37.49639 v -8.115355 z m 10.331614,8.265412 c -1.07931,0 -1.957401,-0.359995 -2.634373,-1.080083 -0.67707,-0.725035 -1.015506,-1.692525 -1.015506,-2.902567 v -0.255075 c 0,-0.805013 0.149601,-1.522577 0.448804,-2.15259 0.304157,-0.634963 0.726113,-1.130067 1.265767,-1.485011 0.54451,-0.359994 1.133207,-0.540041 1.76609,-0.540041 1.035122,0 1.839701,0.347472 2.413636,1.042516 0.574033,0.695045 0.860951,1.690102 0.860951,2.985171 v 0.577504 h -5.393874 c 0.01962,0.800063 0.247684,1.447547 0.684302,1.942551 0.441572,0.490056 1.000844,0.735033 1.677815,0.735033 0.480805,0 0.887899,-0.09997 1.22158,-0.300011 0.333581,-0.199941 0.625452,-0.465014 0.875614,-0.795016 l 0.831526,0.660006 c -0.667163,1.045041 -1.667907,1.567613 -3.002332,1.567613 z m -0.169218,-7.275304 c -0.549463,0 -1.010652,0.204989 -1.383466,0.614968 -0.372815,0.405031 -0.603459,0.975063 -0.691734,1.710095 h 3.988414 v -0.105018 c -0.03923,-0.705043 -0.225591,-1.250031 -0.559272,-1.635068 -0.333581,-0.389984 -0.784863,-0.584977 -1.353942,-0.584977 z"
     fill="#ffffff"
     id="path2"
     style="stroke-width:1.00022" />
  <mask
     id="path-3-inside-1_56290_667"
     fill="#ffffff">
    <path
       fill-rule="evenodd"
       clip-rule="evenodd"
       d="m 16.3043,34.3444 c -0.2001,-0.8025 -0.7969,-1.7451 -1.2618,-2.763 0.3985,0.8725 0.797,1.745 1.2618,2.763 z m 1.1227,-0.0918 c -0.6632,-1.0879 -1.0626,-2.3267 -1.4619,-3.5655 -0.3312,-0.3608 -0.595,-0.2099 -0.8588,-0.0591 -0.4613,0.4472 -0.9235,0.528 -0.394,0.9589 0.6632,1.0879 1.1281,2.1058 1.461,3.1992 0.1319,-0.0755 0.3958,-0.2263 0.5277,-0.3017 0.2638,-0.1509 0.3293,-0.3717 0.726,-0.2318 z m -2.8493,-3.6891 c -0.2001,-0.8025 -0.7969,-1.745 -1.2618,-2.763 0.3985,0.8725 0.7969,1.745 1.2618,2.763 z m -1.7931,-3.9263 c -0.1337,-0.6571 -0.7969,-1.7451 -1.1953,-2.6176 0.3984,0.8725 0.7305,1.5996 1.2617,2.763 0,0 0,0 -0.0664,-0.1454 z m 1.1227,-0.0918 c -0.5968,-0.9425 -0.9961,-2.1813 -1.4619,-3.5655 -0.2647,-0.2154 -0.5286,-0.0645 -0.7924,0.0863 -0.4613,0.4472 -0.9235,0.528 -0.394,0.9589 0.5968,0.9425 1.1281,2.1058 1.461,3.1992 0.1319,-0.0755 0.3958,-0.2263 0.5277,-0.3017 0.1974,-0.2963 0.3294,-0.3717 0.6596,-0.3772 z M 11.058,22.8563 c -0.1337,-0.6571 -0.7969,-1.7451 -1.19538,-2.6176 0.39848,0.8725 0.73048,1.5996 1.26178,2.763 z m 1.1227,-0.0918 C 11.5839,21.822 11.1845,20.5832 10.7188,19.199 10.454,18.9836 10.1902,19.1345 9.92633,19.2853 c -0.46127,0.4472 -0.98985,0.3826 -0.39396,0.9589 0.59683,0.9425 1.12803,2.1058 1.46103,3.1992 0.1319,-0.0754 0.3957,-0.2263 0.4612,-0.4472 0.2639,-0.1508 0.3958,-0.2262 0.7261,-0.2317 z m -0.254,4.1798 c -0.5286,-0.0645 -0.9252,-0.2045 -1.4538,-0.2691 0.5286,0.0646 0.8588,0.0591 1.4538,0.2691 -0.7933,-0.2799 -1.3883,-0.4899 -2.11523,-0.6245 0.59503,0.21 1.12353,0.2746 1.91693,0.5545 -0.8598,-0.4254 -1.5867,-0.5599 -2.24807,-0.9153 0.59497,0.21 1.18997,0.42 2.04967,0.8453 -0.7278,-0.5008 -1.5211,-0.7807 -2.31441,-1.0607 0.79331,0.28 1.65301,0.7053 2.71111,1.2007 0.1983,0.07 0.1983,0.07 0,0 z m -0.2638,0.1509 c 0,0 -0.132,0.0754 -0.1984,-0.07 -0.9907,0.0163 -1.84956,-0.0428 -2.64198,0.0435 0.72691,0.1345 1.51938,0.0482 2.31178,-0.0381 -0.7924,0.0863 -1.45295,0.0972 -2.04704,0.2535 0.6605,-0.0109 1.45294,-0.0972 2.24534,-0.1835 -0.6605,0.0109 -1.2546,0.1672 -1.84868,0.3235 0.79238,-0.0863 1.38648,-0.2426 2.04698,-0.2535 -0.4621,0.0809 -0.9243,0.1617 -1.3865,0.2426 0.4622,-0.0809 0.9244,-0.1617 1.3865,-0.2426 0.132,-0.0754 0.132,-0.0754 0.132,-0.0754 z m 0.3984,0.8725 c -0.2638,0.1508 -0.4613,0.4471 -0.857,0.6734 0.2638,-0.1509 0.4612,-0.4471 0.857,-0.6734 -0.3958,0.2263 -0.857,0.6734 -1.2528,0.8997 0.3958,-0.2263 0.7251,-0.598 1.1209,-0.8243 -0.5277,0.3017 -1.0554,0.6034 -1.5167,1.0506 0.3294,-0.3717 0.8571,-0.6734 1.3848,-0.9752 -0.5277,0.3018 -1.0554,0.6035 -1.5831,0.9052 0.5277,-0.3017 1.1209,-0.8243 1.7805,-1.2014 0.1319,-0.0755 0.1983,0.07 0.0664,0.1454 z m 0.0664,0.1454 c -0.1319,0.0754 -0.1319,0.0754 -0.1319,0.0754 -0.5268,0.668 -0.9217,1.2606 -1.1846,1.7777 0.2629,-0.5171 0.6578,-1.1097 0.9872,-1.4814 -0.263,0.5171 -0.5923,0.8888 -0.8553,1.406 0.263,-0.5172 0.6578,-1.1097 0.9208,-1.6268 -0.263,0.5171 -0.394,0.9588 -0.5914,1.2551 0.1974,-0.2963 0.4604,-0.8134 0.7233,-1.3306 -0.131,0.4417 -0.3285,0.738 -0.394,0.9589 0.1975,-0.2963 0.1966,-0.6626 0.394,-0.9589 z m 0.3294,-0.3717 c 0.1319,-0.0754 0.1319,-0.0754 0.2638,-0.1509 0.0664,0.1455 0.0664,0.1455 0.2648,0.2155 0.6631,1.0879 1.128,2.1058 1.461,3.1992 0.1319,-0.0755 0.3957,-0.2263 0.5276,-0.3017 0.1975,-0.2963 0.3294,-0.3717 0.6596,-0.3772 -0.5967,-0.9425 -0.9961,-2.1813 -1.4619,-3.5655 -0.2647,-0.2154 -0.5285,-0.0645 -0.7924,0.0863 -0.3293,0.3717 -0.6596,0.3772 -0.7251,0.598 -0.0664,-0.1454 -0.2647,-0.2154 -0.3311,-0.3608 -0.0665,-0.1454 -0.2648,-0.2154 -0.5959,-0.5762 -0.8598,-0.4254 -2.24807,-0.9154 -2.97498,-1.0499 0.19922,0.4363 1.25728,0.9316 2.11698,1.357 -0.8588,-0.0591 -1.98147,0.0326 -2.64107,0.4098 0.6614,0.3554 3.10507,0.2419 3.83107,0.0102 0,0 0.1319,-0.0755 0.1983,0.0699 0.1984,0.07 0.3967,0.14 0.4631,0.2854 -0.1319,0.0755 -0.2638,0.1509 -0.4622,0.0809 0,0 -0.1319,0.0754 -0.3957,0.2263 -0.726,0.2317 -1.5831,0.9051 -2.04434,1.3523 0.39664,0.1399 1.18814,-0.3126 1.78134,-0.8352 -0.3948,0.5926 -0.8552,1.406 -1.1181,1.9231 0.594,-0.1563 1.6467,-1.8585 1.7113,-2.4456 0.132,-0.0755 0.132,-0.0755 0.2639,-0.1509 z"
       id="path6" />
  </mask>
  <path
     fill-rule="evenodd"
     clip-rule="evenodd"
     d="m 16.157083,34.67713 c -0.198247,-0.810364 -0.789519,-1.762202 -1.250113,-2.790077 0.39481,0.881051 0.789618,1.7621 1.250113,2.790077 z m 1.112301,-0.0927 c -0.657057,-1.098563 -1.052757,-2.349503 -1.44836,-3.600442 -0.328132,-0.364336 -0.589488,-0.211957 -0.850845,-0.05968 -0.457027,0.451583 -0.914947,0.533175 -0.390351,0.968297 0.657057,1.098562 1.117652,2.126436 1.447468,3.230551 0.130679,-0.07624 0.392134,-0.228518 0.522813,-0.304656 0.261357,-0.152379 0.32625,-0.375343 0.719275,-0.234072 z m -2.822909,-3.725253 c -0.198246,-0.810365 -0.789519,-1.7621 -1.250113,-2.790077 0.394809,0.881051 0.789518,1.7621 1.250113,2.790077 z M 12.669982,26.8944 c -0.132461,-0.663539 -0.789518,-1.762201 -1.184229,-2.643251 0.394711,0.88105 0.723735,1.615276 1.250014,2.790076 0,0 0,0 -0.06579,-0.146825 z m 1.112303,-0.0927 c -0.591273,-0.951737 -0.986875,-2.202676 -1.44836,-3.600441 -0.262249,-0.21751 -0.523705,-0.06514 -0.785061,0.08715 -0.457028,0.451582 -0.914947,0.533174 -0.390351,0.968297 0.591273,0.951736 1.117651,2.126436 1.447468,3.230551 0.130678,-0.07624 0.392134,-0.228518 0.522813,-0.304657 0.195571,-0.299204 0.326348,-0.375342 0.653491,-0.380896 z m -2.82291,-3.725252 c -0.132462,-0.66354 -0.78952,-1.762202 -1.1843087,-2.643253 0.3947887,0.881051 0.7237147,1.615276 1.2500937,2.790077 z m 1.112301,-0.0927 c -0.591272,-0.951736 -0.986974,-2.202677 -1.44836,-3.600441 -0.262347,-0.21751 -0.523703,-0.06514 -0.7851298,0.08715 -0.4569977,0.451582 -0.980682,0.386349 -0.3903111,0.968297 0.5913019,0.951736 1.1175829,2.126435 1.4474979,3.230551 0.130678,-0.07614 0.392035,-0.228518 0.456928,-0.451582 0.261456,-0.152279 0.392134,-0.228418 0.719375,-0.233971 z m -0.251648,4.22076 c -0.523703,-0.06514 -0.91663,-0.206504 -1.440334,-0.271737 0.523704,0.06524 0.850846,0.05967 1.440334,0.271737 -0.785952,-0.282643 -1.375441,-0.494701 -2.095638,-0.63062 0.589519,0.212058 1.113124,0.27729 1.899175,0.559934 -0.851836,-0.429569 -1.572004,-0.565387 -2.2272479,-0.92427 0.589459,0.212058 1.1789479,0.424116 2.0306859,0.853584 -0.721059,-0.505708 -1.5070118,-0.788351 -2.2929739,-1.071094 0.7859621,0.282743 1.6376999,0.712211 2.6859989,1.212466 0.196464,0.07069 0.196464,0.07069 0,0 z m -0.261356,0.152379 c 0,0 -0.130777,0.07614 -0.196562,-0.07069 -0.981524,0.01646 -1.8324297,-0.04322 -2.6175102,0.04392 0.7201773,0.135818 1.5053082,0.04867 2.2903672,-0.03847 -0.785059,0.08715 -1.4394917,0.09815 -2.0280792,0.255984 0.6543823,-0.01101 1.4394832,-0.09815 2.2245442,-0.185299 -0.654383,0.01101 -1.2429807,0.168839 -1.8315581,0.326671 0.7850401,-0.08715 1.3736381,-0.244978 2.0280211,-0.255985 -0.457821,0.0817 -0.915739,0.163285 -1.373659,0.244978 0.45792,-0.0817 0.915838,-0.163284 1.373659,-0.244978 0.130777,-0.07614 0.130777,-0.07614 0.130777,-0.07614 z m 0.39471,0.88105 c -0.261357,0.152278 -0.457027,0.451481 -0.849063,0.679999 0.261358,-0.152379 0.456929,-0.451482 0.849063,-0.679999 -0.392134,0.228517 -0.849063,0.679999 -1.241196,0.908516 0.392133,-0.228517 0.718384,-0.60386 1.110517,-0.832377 -0.522811,0.304656 -1.045624,0.609312 -1.502652,1.060895 0.32635,-0.375342 0.849162,-0.679999 1.371974,-0.984756 -0.522812,0.304757 -1.045624,0.609414 -1.568437,0.91407 0.522813,-0.304656 1.110518,-0.832378 1.764009,-1.213173 0.130678,-0.07624 0.196464,0.07069 0.06579,0.146825 z m 0.06579,0.146824 c -0.130679,0.07614 -0.130679,0.07614 -0.130679,0.07614 -0.52192,0.674546 -0.913163,1.272953 -1.173627,1.795121 0.260464,-0.522168 0.651707,-1.120575 0.978056,-1.495917 -0.260564,0.522167 -0.586814,0.89751 -0.847378,1.419778 0.260564,-0.522268 0.651707,-1.120575 0.912271,-1.642741 -0.260564,0.522166 -0.390351,0.968195 -0.585922,1.267399 0.195571,-0.299204 0.456136,-0.821372 0.7166,-1.34364 -0.129786,0.446029 -0.325457,0.745232 -0.39035,0.968297 0.195671,-0.299203 0.194779,-0.669093 0.39035,-0.968297 z m 0.326349,-0.375342 c 0.130678,-0.07614 0.130678,-0.07614 0.261357,-0.152379 0.06579,0.146926 0.06579,0.146926 0.262347,0.217613 0.656958,1.09856 1.117552,2.126435 1.447469,3.230549 0.130678,-0.07624 0.392034,-0.228517 0.522712,-0.304656 0.195672,-0.299203 0.32635,-0.375342 0.653491,-0.380896 -0.591172,-0.951736 -0.986874,-2.202676 -1.448359,-3.600441 -0.262248,-0.21751 -0.523606,-0.06513 -0.785061,0.08715 -0.32625,0.375343 -0.653491,0.380897 -0.718384,0.60386 -0.06579,-0.146824 -0.262248,-0.21751 -0.328033,-0.364335 -0.06589,-0.146826 -0.262349,-0.217511 -0.590382,-0.581846 -0.851836,-0.42957 -2.2272476,-0.924372 -2.9474249,-1.06019 0.1973748,0.440576 1.2456348,0.94073 2.0973719,1.370298 -0.8508454,-0.05967 -1.963117,0.03292 -2.6166078,0.413816 0.6552741,0.358883 3.0763108,0.244271 3.7955858,0.0103 0,0 0.130679,-0.07624 0.196464,0.07059 0.196562,0.07069 0.393026,0.141372 0.458811,0.288197 -0.130679,0.07624 -0.261357,0.152379 -0.457919,0.0817 0,0 -0.130679,0.07614 -0.392036,0.228518 -0.719275,0.233971 -1.568437,0.913969 -2.0254046,1.365551 0.3929666,0.141272 1.1771356,-0.315663 1.7648416,-0.843384 -0.391144,0.598408 -0.847279,1.419778 -1.107745,1.941945 0.588499,-0.157831 1.631448,-1.876712 1.695451,-2.469565 0.130777,-0.07624 0.130777,-0.07624 0.261455,-0.152379 z"
     fill="#ffffff"
     id="path9"
     style="stroke-width:1.00022" />
  <rect
     x="0.4000895"
     y="0.4000895"
     width="64.199821"
     height="41.199821"
     rx="1.5851808"
     stroke="#fe9013"
     stroke-width="0.800179"
     id="rect13" />
  <path
     style="fill:#fe9013;fill-opacity:1;stroke-width:0"
     d="m 29.849775,17.009807 c -1.69307,-0.397368 -2.686428,-1.373972 -2.911899,-2.862788 l -0.04095,-0.27035 0.701747,0.0179 0.701747,0.0179 0.04214,0.300952 c 0.09046,0.646157 0.492881,1.17141 1.127049,1.471055 0.48344,0.228426 0.919065,0.29655 1.709319,0.267309 0.615201,-0.02276 0.765765,-0.05052 1.085773,-0.2002 0.724467,-0.338849 0.988594,-0.745905 0.988594,-1.523553 0,-1.065804 -0.457612,-1.448484 -2.536622,-2.121261 -2.065727,-0.668477 -2.953086,-1.303704 -3.325622,-2.3806869 -0.09987,-0.288717 -0.118344,-0.46727 -0.09578,-0.9257245 0.04087,-0.830614 0.203211,-1.2128879 0.752926,-1.7729727 0.491769,-0.501046 0.982214,-0.7769663 1.683965,-0.9473846 0.582612,-0.1414857 1.724563,-0.1425951 2.253901,-0.00219 1.474684,0.3911554 2.45215,1.4319547 2.630965,2.8014374 l 0.04327,0.3313351 H 33.981396 33.30251 L 33.226671,8.8176901 C 33.132397,8.3292876 32.979714,8.0186387 32.687603,7.7209074 32.211574,7.2357213 31.297549,6.9976473 30.399566,7.1249483 c -1.077287,0.1527196 -1.670485,0.7054906 -1.742825,1.624053 -0.02676,0.3398227 -0.0076,0.4429121 0.138829,0.7480232 0.265157,0.5523885 0.758575,0.8701065 1.956311,1.2596915 1.280013,0.416347 1.630117,0.55091 2.188698,0.841227 0.710139,0.36909 1.200974,0.84805 1.476317,1.440599 0.190241,0.409404 0.200806,0.470328 0.200806,1.157934 0,0.661575 -0.01522,0.758908 -0.171964,1.100059 -0.354348,0.77121 -0.902584,1.240691 -1.837738,1.573746 -0.481097,0.171341 -0.613275,0.190161 -1.457881,0.207575 -0.632034,0.01302 -1.04753,-0.0087 -1.300344,-0.06806 z"
     id="path13091" />
  <path
     style="fill:#fe9013;fill-opacity:1;stroke-width:0"
     d="M 5.2361291,11.541862 V 6.1102999 l 2.4923252,0.021211 2.4923247,0.021211 0.479513,0.1651918 c 1.492235,0.5140723 2.316275,1.7897553 2.194107,3.3966574 -0.106953,1.4067439 -0.803103,2.3177969 -2.106584,2.7568839 -0.489498,0.16489 -0.561588,0.171259 -2.3317875,0.206013 l -1.8266731,0.03586 -0.016305,2.130046 -0.016304,2.130046 H 5.9164378 5.2361291 Z m 5.1866239,-0.210179 c 0.672751,-0.316671 1.031575,-0.854029 1.10453,-1.6540851 C 11.620638,8.6537948 11.194957,7.8721536 10.313661,7.4491318 9.9772355,7.2876478 9.9525785,7.2854134 8.2857444,7.2653664 L 6.5983938,7.2450727 v 2.1547928 2.1547925 l 1.7183112,-0.02023 1.718311,-0.02023 z"
     id="path13130" />
  <path
     style="fill:#fe9013;fill-opacity:1;stroke-width:0"
     d="m 16.736175,17.000769 c -0.612152,-0.151161 -1.032,-0.399707 -1.536075,-0.909342 -0.817902,-0.826922 -1.076066,-1.563082 -1.074003,-3.062531 0.0022,-1.556095 0.296533,-2.397212 1.138097,-3.2516931 0.689904,-0.7004959 1.378529,-1.006134 2.270307,-1.0076505 1.527607,-0.0026 2.567123,0.762584 3.036012,2.2347946 0.134013,0.420777 0.167713,0.666969 0.192899,1.409202 l 0.03052,0.899352 h -2.69845 -2.698451 l 0.03569,0.33134 c 0.04533,0.420775 0.231075,1.000031 0.416486,1.298773 0.206832,0.333261 0.681406,0.758347 1.01722,0.911144 0.402889,0.183318 1.174456,0.221249 1.657444,0.08148 0.416454,-0.120514 0.943072,-0.460947 1.195086,-0.772567 l 0.171143,-0.211621 0.382196,0.298315 c 0.210209,0.164074 0.382196,0.335536 0.382196,0.38103 0,0.150555 -0.767573,0.8658 -1.151312,1.072821 -0.207504,0.111947 -0.555807,0.246429 -0.774005,0.298853 -0.491543,0.118092 -1.511389,0.117222 -1.992996,-0.0017 z m 2.723199,-5.159398 C 19.38339,11.012047 18.970657,10.317233 18.37819,10.021269 18.139782,9.9021736 17.98607,9.8750352 17.558432,9.8765389 c -0.445889,0.00157 -0.573646,0.027151 -0.835935,0.1673991 -0.645452,0.345125 -1.088064,1.036521 -1.236389,1.931334 l -0.04388,0.264717 h 2.026833 2.026834 z"
     id="path13169" />
  <path
     style="fill:#fe9013;fill-opacity:1;stroke-width:0"
     d="M 24.121671,17.04453 C 23.640662,16.88347 23.337429,16.604244 23.119174,16.121406 22.978344,15.809854 22.976137,15.768543 22.94557,12.871114 L 22.91461,9.9363841 22.187037,9.918603 21.459463,9.9008219 V 9.3979251 8.8950283 h 0.743054 0.743053 V 7.9167849 6.9385416 h 0.650172 0.650172 v 0.9782433 0.9782434 h 0.743053 0.743054 v 0.5048998 0.5048997 h -0.743054 -0.743053 v 2.7200762 c 0,2.386818 0.0124,2.746716 0.101231,2.937509 0.148889,0.319799 0.384253,0.418704 0.929589,0.390636 l 0.455287,-0.02344 v 0.518179 c 0,0.335303 -0.02626,0.53472 -0.0744,0.565044 -0.107288,0.06759 -1.352058,0.09327 -1.535953,0.03168 z"
     id="path13208" />
  <path
     style="fill:#fe9013;fill-opacity:1;stroke-width:0"
     d="m 37.992002,17.04453 c -0.478966,-0.160377 -0.78421,-0.447308 -1.01561,-0.95468 -0.124003,-0.271888 -0.130851,-0.409228 -0.16049,-3.218736 L 36.784942,9.9363841 36.057369,9.9186031 35.329795,9.9008221 V 9.3979251 8.8950283 h 0.743054 0.743054 V 7.9167849 6.9385416 h 0.650171 0.650172 V 7.9167849 8.8950283 H 38.8593 39.602353 V 9.3999281 9.9048278 H 38.8593 38.116246 l 0.0014,2.6980582 c 0.0013,2.489369 0.01022,2.717956 0.115997,2.955317 0.15315,0.343689 0.368306,0.430757 0.967582,0.391559 l 0.46309,-0.03029 v 0.520226 c 0,0.435679 -0.01762,0.527776 -0.108362,0.566683 -0.160087,0.06864 -1.383721,0.09849 -1.563909,0.03815 z"
     id="path13247" />
  <path
     style="fill:#fe9013;fill-opacity:1;stroke-width:0"
     d="m 43.396392,17.008965 c -1.102627,-0.272321 -2.032505,-1.193537 -2.416464,-2.393956 -0.0776,-0.242583 -0.17097,-0.712897 -0.20751,-1.045142 -0.256201,-2.329511 0.844066,-4.2640365 2.675428,-4.704032 1.278887,-0.3072597 2.594639,0.070058 3.422549,0.9814806 0.726793,0.8001074 1.034814,1.7035674 1.041677,3.0553544 0.0064,1.260387 -0.233796,2.102785 -0.82328,2.887354 -0.458937,0.61082 -1.05877,1.010041 -1.822062,1.212678 -0.438364,0.116377 -1.411297,0.119634 -1.870338,0.0063 z m 1.874229,-1.186291 c 0.867828,-0.454125 1.328818,-1.466027 1.328818,-2.91684 0,-1.421113 -0.454724,-2.376648 -1.343018,-2.822156 -0.378396,-0.1897768 -0.471242,-0.2101167 -0.94696,-0.2074521 -0.44537,0.00249 -0.582483,0.030045 -0.881244,0.1770641 -0.884103,0.435067 -1.346668,1.446043 -1.34703,2.944049 -2.6e-4,1.071953 0.22986,1.794146 0.757635,2.377731 0.446356,0.493556 0.856125,0.655435 1.593377,0.62946 0.42089,-0.01482 0.588852,-0.05125 0.838422,-0.181856 z"
     id="path13286" />
  <path
     style="fill:#fe9013;fill-opacity:1;stroke-width:0"
     d="M 49.695496,12.934226 V 8.8950283 h 0.650171 0.650172 l 0.002,0.4891217 c 0.0018,0.4477083 0.0098,0.4784343 0.0941,0.3628966 0.22756,-0.3117825 0.575115,-0.6242843 0.855192,-0.7689402 0.319979,-0.1652659 1.052801,-0.2647302 1.363972,-0.1851289 0.160386,0.041029 0.161614,0.046021 0.161614,0.6569217 v 0.6155778 l -0.57277,0.0055 c -0.869501,0.0083 -1.358802,0.244516 -1.724823,0.832775 l -0.179267,0.288084 v 2.890817 2.890817 h -0.650168 -0.650171 z"
     id="path13325" />
  <path
     style="fill:#fe9013;fill-opacity:1;stroke-width:0"
     d="m 54.92783,20.228101 c -0.03405,-0.01369 -0.138549,-0.04212 -0.232204,-0.06318 -0.16918,-0.03803 -0.170283,-0.04169 -0.170283,-0.565619 v -0.527339 l 0.522461,-0.02795 c 0.904948,-0.04841 1.245604,-0.382297 1.668807,-1.635639 l 0.17883,-0.529615 -1.401773,-3.959123 C 54.722693,10.74211 54.091895,8.9457717 54.091895,8.9277646 c 0,-0.018008 0.318121,-0.032741 0.706935,-0.032741 h 0.706935 l 0.972674,2.9820654 c 0.534971,1.640135 0.992334,3.004232 1.016365,3.031327 0.02403,0.02709 0.459221,-1.314835 0.967095,-2.982065 l 0.923404,-3.031327 h 0.697038 c 0.383369,0 0.697035,0.010421 0.697035,0.023159 0,0.1336228 -3.274806,9.557764 -3.430528,9.872273 -0.446504,0.901796 -1.113574,1.396969 -1.940576,1.440507 -0.230186,0.01212 -0.446385,0.01082 -0.480442,-0.0028 z"
     id="path13364" />
  <path
     style="fill:#fe9013;fill-opacity:1;stroke-width:0"
     d="M 10.725564,23.079392 C 10.477906,22.348395 9.758167,20.8577 9.4542562,20.446309 9.3139098,20.256329 9.199081,20.068924 9.199081,20.029856 c 0,-0.115742 0.932313,-0.721366 1.108851,-0.720304 0.240849,0.0014 0.284367,0.05456 0.4389,0.53549 0.292206,0.909421 0.740632,2.059184 1.007348,2.582834 0.242631,0.476365 0.261515,0.541233 0.157554,0.541233 -0.179966,0 -0.483411,0.180262 -0.703092,0.417674 -0.108631,0.117398 -0.222086,0.213378 -0.252121,0.213288 -0.03004,-8.9e-5 -0.133966,-0.234396 -0.230957,-0.520679 z m -0.008,-0.753085 c -0.194555,-0.458103 -0.8184062,-1.65348 -0.7644166,-1.464716 0.073844,0.25818 0.9525986,2.139934 0.9680446,2.072957 0.01058,-0.0459 -0.08104,-0.319611 -0.203628,-0.608241 z"
     id="path13403" />
  <path
     style="fill:#fe9013;fill-opacity:1;stroke-width:0"
     d="m 12.420971,26.864213 c -0.260628,-0.766227 -0.928919,-2.154947 -1.240247,-2.577258 -0.136318,-0.184913 -0.247851,-0.356074 -0.247851,-0.380358 0,-0.08483 0.663027,-0.620656 0.8849,-0.715144 0.345082,-0.146958 0.48983,-0.05757 0.625438,0.38625 0.261738,0.856616 0.6885,1.988451 0.965131,2.559678 0.163065,0.33672 0.281168,0.627826 0.26245,0.646903 -0.01872,0.01907 -0.07477,0.03468 -0.124568,0.03468 -0.0498,0 -0.19674,0.0978 -0.326547,0.217322 -0.129806,0.119529 -0.318098,0.26059 -0.418427,0.31347 l -0.182417,0.09615 z m 0.181239,-0.277685 c -0.08441,-0.264773 -0.910763,-1.976494 -0.954179,-1.976494 -0.01489,0 0.155819,0.404708 0.379348,0.899353 0.223529,0.494644 0.449225,1.00616 0.501545,1.136702 0.121112,0.302183 0.174717,0.258616 0.07328,-0.05955 z"
     id="path13442" />
  <path
     style="fill:#fe9013;fill-opacity:1;stroke-width:0"
     d="m 15.484075,35.158237 c -1.601959,-0.469183 -2.571571,-2.0163 -2.569259,-4.099521 6.21e-4,-0.55924 0.09708,-1.139184 0.283866,-1.706658 l 0.152974,-0.464755 -0.195282,-0.355707 c -0.107405,-0.195639 -0.289656,-0.444985 -0.405004,-0.554104 -0.116262,-0.109983 -0.195165,-0.237059 -0.177058,-0.285154 0.01796,-0.04771 0.150585,-0.164658 0.294712,-0.259872 0.144127,-0.09522 0.358687,-0.245147 0.476801,-0.333183 0.153798,-0.114634 0.276717,-0.154739 0.433068,-0.141299 0.204108,0.01755 0.226067,0.04136 0.337434,0.365887 0.06552,0.190914 0.125761,0.35628 0.13388,0.36748 0.0081,0.0112 0.163671,-0.08029 0.345669,-0.2033 0.507237,-0.342843 0.977507,-0.48558 1.724134,-0.523308 1.144157,-0.05783 1.92726,0.234826 2.674213,0.999342 0.758918,0.776762 1.103945,1.775992 1.101901,3.191207 -0.0013,0.921267 -0.11219,1.474268 -0.431679,2.153349 -0.439641,0.93447 -1.241809,1.615994 -2.202133,1.870941 -0.491211,0.130405 -1.497164,0.11955 -1.978237,-0.02134 z m 0.423014,-1.254892 c -0.150543,-0.367328 -0.761158,-1.59359 -0.793525,-1.59359 -0.03767,0 0.03036,0.172959 0.310243,0.788906 0.126188,0.277695 0.280939,0.625602 0.343893,0.773128 0.06296,0.147525 0.141894,0.268228 0.175423,0.268228 0.0336,0 0.01742,-0.106242 -0.03604,-0.236672 z m 1.508325,0.113833 c 0.869467,-0.402337 1.383228,-1.503821 1.380366,-2.959446 -0.0021,-1.046544 -0.25085,-1.775023 -0.813178,-2.381041 -0.428129,-0.461392 -0.804411,-0.620413 -1.476829,-0.624123 -0.454532,-0.0025 -0.574498,0.0212 -0.879441,0.173834 -0.20439,0.102299 -0.470021,0.30927 -0.630688,0.491409 -0.324006,0.367305 -0.328644,0.326249 0.145806,1.290454 0.253986,0.516164 0.278362,0.597454 0.179161,0.597454 -0.06315,0 -0.219396,0.0936 -0.347207,0.208003 -0.390593,0.349615 -0.567509,0.443179 -0.671561,0.355161 -0.07804,-0.06602 -0.08526,-0.0258 -0.05312,0.295563 0.09009,0.90059 0.244943,1.394354 0.591519,1.886237 0.201171,0.285516 0.716571,0.70467 0.783098,0.636861 0.05552,-0.05658 -0.802461,-1.787668 -1.031373,-2.08092 -0.105337,-0.134942 -0.19152,-0.295601 -0.19152,-0.35702 0,-0.109319 0.455595,-0.538909 0.723501,-0.682206 0.194979,-0.104288 0.420441,-0.08906 0.563807,0.03811 0.06849,0.06074 0.214725,0.394453 0.324967,0.741572 0.407951,1.284518 0.925886,2.494114 1.066856,2.491556 0.042,-7.64e-4 0.193118,-0.05542 0.335827,-0.121453 z M 14.38636,30.591635 c -0.03826,-0.111882 -0.08042,-0.170257 -0.09367,-0.129724 -0.0232,0.07091 0.0852,0.333145 0.13769,0.333145 0.01406,0 -0.0057,-0.09154 -0.04402,-0.203421 z m -0.968959,-2.085458 c -0.06116,-0.06187 -0.06827,-0.05462 -0.03467,0.03533 0.02325,0.06225 0.05788,0.09728 0.07695,0.07784 0.01906,-0.01943 4e-5,-0.07037 -0.04228,-0.11317 z"
     id="path13481" />
  <path
     style="fill:#fe9013;fill-opacity:1;stroke-width:0"
     d="M 21.892911,31.110618 V 27.07142 h 0.619211 0.619212 v 0.5049 c 0,0.277695 0.02263,0.5049 0.05028,0.5049 0.02765,0 0.109526,-0.08169 0.181943,-0.181516 0.203234,-0.280177 0.852418,-0.689155 1.32726,-0.836161 0.353606,-0.109469 0.534083,-0.127179 1.029132,-0.100986 0.710402,0.03758 0.954557,0.105979 1.3523,0.378791 0.394573,0.270638 0.669625,0.653586 0.839302,1.168538 0.135939,0.412562 0.140009,0.502568 0.159711,3.531641 l 0.02022,3.10829 h -0.650056 -0.650057 l -0.01882,-2.982065 c -0.0181,-2.867257 -0.02379,-2.992998 -0.147821,-3.26607 -0.15783,-0.347494 -0.500595,-0.664957 -0.813611,-0.753555 -0.383806,-0.108635 -1.028085,-0.08106 -1.397508,0.05983 -0.400016,0.152545 -0.805078,0.492816 -1.044264,0.877231 l -0.176088,0.283004 v 2.890816 2.890819 h -0.650171 -0.650172 z"
     id="path13520" />
  <path
     style="fill:#fe9013;fill-opacity:1;stroke-width:0"
     d="m 30.314184,29.406581 v -5.743235 h 0.650171 0.650172 v 5.743235 5.743236 h -0.650172 -0.650171 z"
     id="path13559" />
  <path
     style="fill:#fe9013;fill-opacity:1;stroke-width:0"
     d="M 33.96753,31.110618 V 27.07142 h 0.650172 0.650172 v 4.039198 4.039199 H 34.617702 33.96753 Z"
     id="path13598" />
  <path
     style="fill:#fe9013;fill-opacity:1;stroke-width:0"
     d="m 34.277135,25.572402 c -0.132132,-0.06728 -0.261512,-0.203799 -0.331472,-0.349767 -0.305845,-0.638131 0.295358,-1.274313 0.982662,-1.039835 0.320931,0.109486 0.473711,0.336807 0.473711,0.70483 0,0.360004 -0.132735,0.585441 -0.415635,0.705918 -0.276421,0.117719 -0.446493,0.112648 -0.709266,-0.02114 z"
     id="path13637" />
  <path
     style="fill:#fe9013;fill-opacity:1;stroke-width:0"
     d="M 37.497034,31.110618 V 27.07142 h 0.612587 c 0.707126,0 0.687756,-0.01723 0.687756,0.611529 v 0.411866 l 0.368813,-0.348024 c 0.646791,-0.610336 1.307219,-0.839888 2.259749,-0.785444 1.308555,0.0748 2.000751,0.710446 2.235629,2.053013 0.06366,0.363862 0.08572,1.20054 0.08734,3.311173 l 0.0022,2.824284 H 43.100891 42.45072 l -0.0019,-2.60339 c -0.0011,-1.431865 -0.02809,-2.808769 -0.06008,-3.059791 -0.132609,-1.040482 -0.633433,-1.451812 -1.695025,-1.392134 -0.600624,0.03377 -0.988776,0.21096 -1.376329,0.628307 -0.495037,0.533096 -0.458079,0.250212 -0.458079,3.506321 v 2.920687 h -0.681133 -0.681132 z"
     id="path13676" />
  <path
     style="fill:#fe9013;fill-opacity:1;stroke-width:0"
     d="m 48.13659,35.178644 c -1.251729,-0.309447 -2.142945,-1.23889 -2.508827,-2.616439 -0.151461,-0.57025 -0.150603,-2.123095 0.0015,-2.743648 0.188675,-0.76968 0.498917,-1.333779 1.025689,-1.864961 0.695226,-0.701049 1.383593,-1.006138 2.273543,-1.007651 1.52806,-0.0026 2.57057,0.765142 3.034614,2.234794 0.131322,0.415907 0.167,0.675558 0.193638,1.409202 l 0.03266,0.899352 h -2.705901 -2.7059 l 0.03962,0.299785 c 0.110727,0.837814 0.340889,1.33743 0.83168,1.80534 0.430767,0.410684 0.78566,0.561463 1.402066,0.59568 0.81374,0.04516 1.398494,-0.18412 1.979301,-0.776101 l 0.269074,-0.274252 0.374572,0.292364 c 0.206014,0.1608 0.374572,0.329586 0.374572,0.37508 0,0.150555 -0.767575,0.8658 -1.151313,1.072821 -0.207505,0.111947 -0.555808,0.246429 -0.774006,0.298853 -0.489135,0.117515 -1.510802,0.117402 -1.98659,-1.9e-4 z m 2.716793,-5.160881 c -0.0761,-0.830709 -0.487045,-1.521936 -1.079224,-1.815335 -0.443202,-0.219588 -1.22806,-0.211218 -1.660138,0.0177 -0.372769,0.1975 -0.800242,0.652101 -0.960574,1.021531 -0.117727,0.27126 -0.306324,0.944388 -0.306324,1.093308 0,0.06481 0.412211,0.08141 2.021391,0.08141 h 2.021391 z"
     id="path13715" />
  <path
     style="fill:#fe9013;fill-opacity:1;stroke-width:0"
     d="m 10.392997,30.626683 c 0,-0.0023 0.0387,-0.07853 0.09981,-0.196496 0.291625,-0.562858 0.656387,-1.197694 0.95954,-1.669996 0.02418,-0.03768 0.04347,-0.06898 0.04283,-0.06955 -6.31e-4,-5.68e-4 -0.02117,0.01665 -0.04566,0.03826 -0.02448,0.02161 -0.08281,0.07074 -0.129648,0.109164 -0.430335,0.353147 -0.862647,0.601009 -1.198464,0.68713 -0.1401955,0.03596 -0.2772343,0.04088 -0.3669789,0.01322 l -0.021285,-0.0066 0.025604,-0.02417 c 0.1966096,-0.185638 0.2830749,-0.262983 0.4329989,-0.387322 0.500034,-0.414702 1.005106,-0.734502 1.417929,-0.897798 0.05766,-0.0228 0.126975,-0.04721 0.128799,-0.04536 6.72e-4,6.84e-4 -0.03055,0.02153 -0.06938,0.04631 -0.211508,0.135033 -0.363808,0.243195 -0.891043,0.632819 -0.218381,0.161382 -0.419793,0.301671 -0.543746,0.378735 -0.05352,0.03327 -0.07509,0.04813 -0.05419,0.03731 0.0053,-0.0027 0.222699,-0.129169 0.483064,-0.280924 0.260362,-0.151755 0.474112,-0.27518 0.474997,-0.274278 8.85e-4,9.02e-4 -0.0258,0.01921 -0.0593,0.04069 -0.281983,0.180822 -0.492039,0.342976 -0.656368,0.506689 -0.03377,0.03364 -0.07033,0.07182 -0.08124,0.08484 l -0.01985,0.02367 0.01739,-0.01553 c 0.0096,-0.0086 0.03741,-0.03453 0.06189,-0.05776 0.210831,-0.200047 0.500451,-0.419501 0.828195,-0.627548 0.162837,-0.103367 0.428095,-0.26247 0.431614,-0.258884 8.95e-4,9.13e-4 -0.02402,0.02059 -0.05536,0.04372 -0.07829,0.05778 -0.157731,0.121125 -0.276481,0.220396 -0.228858,0.191317 -0.30915,0.256146 -0.404548,0.326634 -0.0571,0.04219 -0.07321,0.05631 -0.03096,0.02714 0.08541,-0.05897 0.226127,-0.166827 0.434416,-0.33297 0.236915,-0.188979 0.318567,-0.252235 0.321602,-0.249142 9.45e-4,9.63e-4 -0.01443,0.01576 -0.03416,0.03289 -0.0452,0.03921 -0.09449,0.08429 -0.182945,0.167291 -0.128877,0.120932 -0.185053,0.169361 -0.251555,0.216868 -0.06911,0.04937 -0.04401,0.03635 0.04064,-0.02107 0.122318,-0.08299 0.213399,-0.159501 0.417967,-0.351145 0.139253,-0.130455 0.210594,-0.189111 0.294507,-0.242142 0.06413,-0.04053 0.08739,-0.06832 0.09116,-0.108895 0.0025,-0.02694 -0.0097,-0.052 -0.03157,-0.06478 -0.0128,-0.0075 -0.01999,-0.0088 -0.04153,-0.0078 -0.01433,6.97e-4 -0.02478,1.49e-4 -0.02322,-0.0012 0.0016,-0.0014 0.05163,-0.03081 0.111274,-0.06543 l 0.108444,-0.06293 0.02315,0.0071 c 0.08878,0.02715 0.182615,0.02544 0.266891,-0.0048 0.01778,-0.0064 0.03379,-0.01163 0.03555,-0.01163 0.0018,2e-6 -0.08377,0.05067 -0.190096,0.11259 -0.10632,0.06192 -0.195336,0.114299 -0.197813,0.116394 -0.0025,0.0021 -0.0056,0.01399 -0.0071,0.02645 -0.0042,0.03629 -0.02106,0.108855 -0.03975,0.170564 -0.09502,0.313736 -0.327589,0.773192 -0.609325,1.20378 -0.376405,0.575273 -0.752246,0.969175 -1.009994,1.058527 -0.01471,0.0052 -0.02674,0.0083 -0.02674,0.0071 z m 0.50698,-0.549532 c 0.0044,-0.0087 0.007,-0.01578 0.0059,-0.01578 -0.0011,0 -0.0054,0.0071 -0.0098,0.01578 -0.0044,0.0087 -0.007,0.01578 -0.0059,0.01578 0.0011,0 0.0055,-0.0071 0.0098,-0.01578 z m 0.02756,-0.05028 c 0.06425,-0.119102 0.149494,-0.257554 0.332131,-0.539416 0.08013,-0.123661 0.163745,-0.25369 0.185815,-0.288955 0.02207,-0.03526 0.04071,-0.06353 0.04143,-0.0628 0.0017,0.0017 -0.100664,0.244857 -0.139741,0.332035 -0.04398,0.09811 -0.104993,0.219127 -0.143453,0.284529 l -0.0066,0.01131 0.0078,-0.0097 c 0.0094,-0.01161 0.09602,-0.157801 0.139172,-0.234902 0.08755,-0.15644 0.222837,-0.414233 0.347319,-0.661827 0.03358,-0.06679 0.06179,-0.120675 0.06269,-0.119758 9e-4,9.18e-4 -0.0037,0.0174 -0.01023,0.03661 -0.01611,0.04741 -0.07701,0.253872 -0.07489,0.253872 0.0049,0 0.08615,-0.186904 0.127027,-0.291896 0.03248,-0.08341 0.09167,-0.259332 0.09004,-0.267631 -9.59e-4,-0.0049 -0.08524,0.103113 -0.192888,0.247235 -0.01998,0.02675 -0.03691,0.04685 -0.03762,0.04469 -7.09e-4,-0.0021 0.01884,-0.04608 0.04345,-0.0976 0.02461,-0.05151 0.04422,-0.09419 0.04359,-0.09483 -6.32e-4,-6.44e-4 -0.01744,0.03026 -0.03735,0.06869 -0.01991,0.03842 -0.05431,0.103174 -0.07642,0.143894 -0.04649,0.0856 -0.0511,0.09625 -0.0281,0.06508 0.0092,-0.01244 0.01738,-0.02191 0.01824,-0.02103 8.56e-4,8.73e-4 -0.002,0.0097 -0.0062,0.01966 -0.0044,0.0099 -0.0066,0.01794 -0.0052,0.01778 0.0015,-1.64e-4 0.0173,-0.01796 0.03515,-0.03955 0.01786,-0.02159 0.03326,-0.03845 0.03421,-0.03747 9.59e-4,9.77e-4 -0.01172,0.0272 -0.02818,0.05829 -0.0423,0.07989 -0.118477,0.212992 -0.120645,0.210784 -9.91e-4,-0.001 0.0158,-0.04306 0.03734,-0.09343 0.02154,-0.05036 0.03855,-0.0922 0.0378,-0.09295 -7.46e-4,-7.61e-4 -0.01059,0.01021 -0.02187,0.02438 -0.01129,0.01418 -0.02124,0.02503 -0.02212,0.02412 -8.86e-4,-9.03e-4 0.0037,-0.01073 0.01008,-0.02184 0.0064,-0.01111 0.01042,-0.02009 0.0089,-0.01996 -0.0061,5.12e-4 -0.287132,0.402153 -0.324085,0.463248 -0.01629,0.02693 0.004,-2.69e-4 0.04857,-0.06509 0.05988,-0.08711 0.20516,-0.285146 0.207457,-0.282806 0.002,0.002 -0.04045,0.07647 -0.223029,0.391281 -0.224892,0.38778 -0.386086,0.676486 -0.377701,0.676486 9.51e-4,0 0.0091,-0.01375 0.01822,-0.03056 z m 0.12337,-0.367832 c 0.0023,-0.0043 0.0033,-0.0079 0.0022,-0.0079 -0.0011,0 -0.0038,0.0035 -0.006,0.0079 -0.0023,0.0043 -0.0033,0.0079 -0.0022,0.0079 0.0011,0 0.0038,-0.0035 0.006,-0.0079 z m 0.05419,-0.08678 c 0.0023,-0.0043 0.0033,-0.0079 0.0022,-0.0079 -0.0011,0 -0.0038,0.0035 -0.006,0.0079 -0.0023,0.0043 -0.0033,0.0079 -0.0022,0.0079 0.0011,0 0.0038,-0.0035 0.006,-0.0079 z m 0.45845,-0.258366 c 0.01575,-0.03254 0.03668,-0.08016 0.0465,-0.105817 0.02249,-0.05876 0.05687,-0.164337 0.0552,-0.169469 -6.97e-4,-0.0021 -0.0084,0.0119 -0.01723,0.03117 -0.0088,0.01927 -0.03184,0.06943 -0.05126,0.111425 -0.05298,0.114592 -0.09719,0.225393 -0.0968,0.242596 2.04e-4,0.0091 0.03575,-0.05237 0.06361,-0.10991 z"
     id="path13754" />
  <path
     style="fill:#fe9013;fill-opacity:1;stroke-width:0"
     d="m 12.733625,28.017458 c -0.05363,-0.02731 -0.07442,-0.0534 -0.119835,-0.150451 -0.05223,-0.111598 -0.162971,-0.190135 -0.381901,-0.270848 -0.07019,-0.02588 -0.08096,-0.03244 -0.0992,-0.06055 -0.02091,-0.0322 -0.06937,-0.06133 -0.10256,-0.06167 -0.0095,-9.5e-5 -0.05066,0.01071 -0.0914,0.02401 -0.266316,0.08696 -0.746506,0.153458 -1.431562,0.198273 -0.212615,0.0139 -1.1042531,0.01389 -1.2926028,-2.3e-5 C 8.738802,27.661039 8.4005064,27.599009 8.2136803,27.51267 l -0.05134,-0.02373 0.041722,-0.02428 c 0.063098,-0.03672 0.1940931,-0.09535 0.3027349,-0.135451 0.3823974,-0.141181 0.8398256,-0.225648 1.3955621,-0.2577 0.1640007,-0.0095 0.6156447,-0.0098 0.7634807,-6.34e-4 0.05748,0.0035 0.105731,0.0054 0.107247,0.004 0.0015,-0.0014 -0.04203,-0.0256 -0.09675,-0.05384 -0.05473,-0.02824 -0.09228,-0.05153 -0.08343,-0.05175 0.02449,-6.27e-4 0.235508,0.04194 0.506385,0.102175 0.366267,0.08143 0.687325,0.141186 0.712554,0.132614 0.0045,-0.0015 -0.135822,-0.07163 -0.31163,-0.155838 -0.17581,-0.08422 -0.323137,-0.154792 -0.327394,-0.156842 -0.01882,-0.0091 0.01064,0.01441 0.04644,0.03699 0.05153,0.0325 0.03927,0.03097 -0.04979,-0.0062 -0.203922,-0.08515 -0.203249,-0.08147 0.0036,0.01928 0.145015,0.07066 0.177532,0.08822 0.150747,0.0814 -0.0063,-0.0016 -0.118649,-0.03926 -0.249474,-0.08362 -0.439623,-0.149098 -0.783005,-0.247376 -1.1356485,-0.32503 -0.085066,-0.01873 -0.103206,-0.02031 -0.085505,-0.0074 0.00911,0.0067 0.00743,0.0075 -0.00774,0.0039 -0.010642,-0.0025 -0.022834,-0.0048 -0.02709,-0.0052 -0.00426,-3.64e-4 -0.00106,-0.0033 0.0071,-0.0066 0.011837,-0.0047 -0.00227,-0.01524 -0.069661,-0.0519 -0.5421767,-0.29488 -0.9013688,-0.561238 -1.0320943,-0.765341 -0.021603,-0.03372 -0.039279,-0.06406 -0.039279,-0.06738 0,-0.0072 0.1590785,0.02653 0.3173458,0.06718 0.6569464,0.168717 1.631693,0.5225 2.322041,0.842782 0.296522,0.137569 0.27248,0.122454 0.40423,0.254131 0.06504,0.06499 0.179183,0.169953 0.253683,0.23325 0.155023,0.131712 0.199266,0.177419 0.228333,0.235884 0.02662,0.05354 0.07168,0.102349 0.182243,0.197393 0.05199,0.04468 0.101958,0.09547 0.119479,0.12139 l 0.03012,0.04457 0.0183,-0.03925 c 0.02115,-0.04536 0.08184,-0.10496 0.149583,-0.146902 0.05259,-0.03256 0.06849,-0.0328 0.02682,-4.01e-4 -0.10281,0.07993 -0.166625,0.151723 -0.166625,0.187467 0,0.04925 0.06957,0.156775 0.162457,0.251077 0.02778,0.0282 0.05527,0.05748 0.06108,0.06508 0.01646,0.0215 -0.0041,0.0179 -0.05983,-0.01051 z M 9.7215404,27.650843 c 0.078756,-0.01102 0.3208286,-0.04814 0.5379396,-0.08252 0.574165,-0.09088 0.736869,-0.111093 1.017123,-0.126332 l 0.157966,-0.0086 0.05599,-0.03307 0.05599,-0.03307 h -0.05676 c -0.0542,0 -0.05801,-0.0012 -0.08425,-0.02713 -0.01512,-0.01492 -0.02931,-0.03297 -0.03153,-0.04012 -0.0037,-0.0119 -0.07499,-0.01341 -0.861147,-0.01807 -0.8241669,-0.0049 -1.1956793,-2.5e-4 -1.4569658,0.01823 -0.1971232,0.01394 -0.3111261,0.02615 -0.3005289,0.0322 0.012953,0.0074 0.1994971,0.03509 0.3121392,0.04635 0.1570373,0.01569 0.3313682,0.02398 0.5301995,0.0252 0.1085556,6.66e-4 0.1869245,0.0025 0.1741533,0.0042 -0.3279129,0.04282 -0.4500683,0.06283 -0.6192113,0.101439 -0.1058771,0.02416 -0.1456095,0.03533 -0.1413055,0.03971 0.010264,0.01046 0.5973943,-0.02345 0.9733705,-0.05624 0.250547,-0.02184 0.27981,-0.02271 0.208984,-0.0062 -0.275089,0.06417 -0.3817467,0.09027 -0.5650303,0.138284 -0.1170696,0.03067 -0.2154774,0.05816 -0.2186839,0.06108 -0.00674,0.0062 0.1072939,-0.0069 0.3115655,-0.0354 z M 11.087278,26.840374 C 10.794261,26.663924 10.418843,26.482075 9.9953978,26.311476 9.792951,26.229916 9.2724195,26.035521 9.2681419,26.039881 c -0.00148,0.0015 0.067723,0.03055 0.1537653,0.06458 0.3941142,0.155821 1.0041698,0.430516 1.5767568,0.709982 0.07451,0.03636 0.140498,0.06646 0.146665,0.06688 0.0061,4.21e-4 -0.01995,-0.018 -0.05805,-0.04094 z m -0.123445,-0.0032 C 10.891614,26.79736 10.514072,26.633197 10.25561,26.529238 9.9818427,26.419121 9.4129188,26.207962 9.4068006,26.214199 c -0.00481,0.0048 0.1028802,0.06024 0.2407437,0.123761 0.176647,0.08138 0.3981837,0.168488 0.8093087,0.318222 0.197955,0.0721 0.394748,0.144999 0.437318,0.162009 0.08266,0.03303 0.107312,0.03974 0.06966,0.01898 z"
     id="path13793" />
  <path
     style="fill:#fe9013;fill-opacity:1;stroke-width:0"
     d="m 11.494032,27.098597 c -0.180476,-0.05221 -0.412018,-0.09166 -0.760696,-0.129617 L 10.518319,26.94558 10.25495,26.810401 C 10.110097,26.736051 9.9931932,26.67358 9.9951639,26.67157 c 0.00198,-0.002 0.053542,0.01059 0.1145991,0.028 0.06106,0.01741 0.248597,0.06762 0.416752,0.111574 0.424217,0.1109 0.80544,0.21997 0.908712,0.259988 0.01224,0.0047 0.02369,0.0072 0.02544,0.0054 0.0018,-0.0018 -0.0065,-0.0069 -0.01849,-0.01128 -0.02557,-0.0095 -0.05646,-0.03263 -0.04397,-0.03299 0.0048,-1.38e-4 0.04831,0.01901 0.09675,0.04257 0.09735,0.04733 0.09716,0.05217 -9.31e-4,0.0238 z"
     id="path13832" />
  <path
     style="fill:#fe9013;fill-opacity:1;stroke-width:0"
     d="m 10.464594,27.440066 c 0.0077,-0.003 0.183688,-0.02947 0.259616,-0.03903 0.144567,-0.01819 0.373057,-0.0364 0.415711,-0.03314 0.01521,0.0012 -0.204524,0.02628 -0.54955,0.06283 -0.09819,0.0104 -0.135571,0.01318 -0.125777,0.0093 z"
     id="path13871" />
  <path
     style="fill:#fe9013;fill-opacity:1;stroke-width:0"
     d="m 10.226584,27.477885 c 0,-0.0022 -0.004,-0.0043 -0.0087,-0.0046 -0.0098,-5.58e-4 0.07892,-0.01074 0.09386,-0.01077 0.0054,-9e-6 -0.0052,0.0031 -0.02322,0.007 -0.05598,0.01197 -0.06193,0.01277 -0.06193,0.0084 z"
     id="path13910" />
</svg>
