<?xml version="1.0" encoding="UTF-8" standalone="no"?>
<svg
   width="125.59945"
   height="23.820538"
   viewBox="0 0 125.59945 23.820538"
   fill="none"
   version="1.1"
   id="svg13"
   sodipodi:docname="logo_320.svg"
   inkscape:version="1.1.2 (b8e25be833, 2022-02-05)"
   xmlns:inkscape="http://www.inkscape.org/namespaces/inkscape"
   xmlns:sodipodi="http://sodipodi.sourceforge.net/DTD/sodipodi-0.dtd"
   xmlns="http://www.w3.org/2000/svg"
   xmlns:svg="http://www.w3.org/2000/svg">
  <defs
     id="defs17" />
  <sodipodi:namedview
     id="namedview15"
     pagecolor="#ffffff"
     bordercolor="#666666"
     borderopacity="1.0"
     inkscape:pageshadow="2"
     inkscape:pageopacity="1"
     inkscape:pagecheckerboard="0"
     showgrid="false"
     inkscape:zoom="6.2424271"
     inkscape:cx="70.645599"
     inkscape:cy="21.786398"
     inkscape:window-width="1920"
     inkscape:window-height="1091"
     inkscape:window-x="-8"
     inkscape:window-y="-8"
     inkscape:window-maximized="1"
     inkscape:current-layer="svg13"
     fit-margin-top="0"
     fit-margin-left="0"
     fit-margin-right="0"
     fit-margin-bottom="0" />
  <path
     d="M 4.9619445,14.570792 H 1.3675418 V 13.10211 h 3.5944027 c 0.6960819,0 1.2597288,-0.112239 1.6909409,-0.336718 0.4312021,-0.224478 0.7453655,-0.53631 0.9424902,-0.935394 0.2032752,-0.399185 0.3049178,-0.854389 0.3049178,-1.365813 0,-0.4676974 -0.1016426,-0.9073349 -0.3049178,-1.3189326 C 7.3982509,8.7336647 7.0840875,8.4031432 6.6528854,8.1536879 6.2216733,7.898006 5.6580264,7.77016 4.9619445,7.77016 H 1.7833478 V 19.912133 H 0 V 6.2921682 h 4.9619445 c 1.0164057,0 1.8757347,0.1777391 2.577987,0.5332071 0.7022523,0.355458 1.2351368,0.8481219 1.5984943,1.4779817 0.363457,0.6236333 0.5451855,1.3376827 0.5451855,2.142188 0,0.873029 -0.1817285,1.618301 -0.5451855,2.235617 -0.3633575,0.617417 -0.896242,1.088238 -1.5984943,1.412563 -0.7022523,0.318078 -1.5615813,0.477067 -2.577987,0.477067 z m 10.7370195,5.52844 c -0.696062,0 -1.327534,-0.118486 -1.894216,-0.355458 -0.560612,-0.243219 -1.044193,-0.58306 -1.450743,-1.019625 -0.40038,-0.436564 -0.708403,-0.954134 -0.923969,-1.552811 -0.215666,-0.598677 -0.323449,-1.253473 -0.323449,-1.96449 v -0.392837 c 0,-0.823155 0.120124,-1.555935 0.360372,-2.198238 0.240248,-0.64865 0.566782,-1.197454 0.979503,-1.646411 0.412721,-0.449058 0.880875,-0.788899 1.404464,-1.019624 0.52359,-0.2307454 1.06569,-0.3461181 1.626301,-0.3461181 0.714574,0 1.33052,0.1247226 1.847938,0.3741275 0.523689,0.2494656 0.951736,0.5986766 1.284441,1.0477346 0.332605,0.442811 0.579023,0.966628 0.739155,1.571551 0.160232,0.598677 0.240248,1.253473 0.240248,1.964389 v 0.776406 h -7.465996 v -1.412462 h 5.756594 v -0.130979 c -0.02468,-0.449058 -0.117039,-0.885522 -0.277171,-1.309593 -0.154061,-0.424071 -0.40048,-0.773282 -0.739255,-1.047734 -0.338775,-0.274352 -0.80076,-0.411578 -1.385954,-0.411578 -0.388138,0 -0.745425,0.08423 -1.071859,0.252589 -0.326534,0.162112 -0.60679,0.405331 -0.840868,0.729656 -0.234077,0.324224 -0.415806,0.720286 -0.545185,1.187983 -0.12938,0.467697 -0.19407,1.007131 -0.19407,1.618301 v 0.392837 c 0,0.480191 0.06469,0.932372 0.19407,1.356443 0.13555,0.417825 0.329519,0.785776 0.582108,1.103754 0.258759,0.318078 0.569867,0.567544 0.933225,0.748396 0.369627,0.180852 0.788518,0.271228 1.256673,0.271228 0.603705,0 1.114953,-0.124733 1.533844,-0.374097 0.418892,-0.249466 0.785434,-0.583161 1.099627,-1.000985 l 1.034837,0.832525 c -0.215566,0.330572 -0.489651,0.645527 -0.822356,0.944865 -0.332605,0.299339 -0.74224,0.542557 -1.228907,0.729656 -0.480495,0.186999 -1.050263,0.280599 -1.709402,0.280599 z M 25.770664,9.7907088 V 11.118981 H 20.365187 V 9.7907088 Z M 22.194713,7.3305125 h 1.709402 V 17.405187 c 0,0.342964 0.05245,0.6018 0.157147,0.776405 0.104698,0.174606 0.240248,0.289969 0.40655,0.346088 0.166303,0.05612 0.344946,0.08423 0.53593,0.08423 0.14172,0 0.289512,-0.01249 0.443473,-0.03748 0.160232,-0.03113 0.280356,-0.05612 0.360372,-0.07476 l 0.0093,1.412462 c -0.13555,0.04363 -0.314094,0.08423 -0.53593,0.121609 -0.215566,0.04363 -0.477411,0.06549 -0.785434,0.06549 -0.418791,0 -0.803845,-0.08423 -1.154961,-0.252589 -0.351116,-0.168359 -0.631372,-0.448957 -0.840867,-0.841895 -0.203226,-0.399085 -0.304938,-0.935395 -0.304938,-1.608931 z m 13.010109,9.1391785 c 0,-0.317977 -0.04926,-0.598676 -0.147891,-0.841895 -0.09236,-0.249364 -0.25866,-0.473944 -0.498907,-0.673436 -0.234078,-0.199592 -0.560612,-0.389814 -0.979503,-0.570667 -0.412721,-0.180852 -0.93631,-0.364828 -1.570767,-0.551927 -0.66531,-0.199492 -1.265929,-0.420947 -1.801859,-0.664166 -0.53593,-0.249466 -0.99483,-0.533187 -1.376798,-0.851165 -0.381869,-0.318078 -0.674465,-0.682906 -0.87779,-1.094484 -0.203226,-0.411578 -0.304938,-0.882499 -0.304938,-1.4125323 0,-0.5300837 0.107883,-1.0196344 0.323449,-1.4686418 0.215566,-0.4490075 0.523589,-0.838772 0.923969,-1.1692935 0.40655,-0.3367582 0.890131,-0.5986767 1.450743,-0.7857657 0.560512,-0.1870889 1.185813,-0.2806284 1.875705,-0.2806284 1.010255,0 1.866548,0.1964389 2.568781,0.5893167 0.708403,0.3866512 1.247418,0.8949017 1.617045,1.5247716 0.369528,0.6236232 0.554342,1.2909028 0.554342,2.0017884 h -1.774092 c 0,-0.5113334 -0.107784,-0.9634542 -0.32335,-1.356342 C 34.647295,8.4654995 34.320861,8.1536879 33.883458,7.9291892 33.446156,7.6984438 32.891714,7.583071 32.220235,7.583071 c -0.634458,0 -1.158047,0.096663 -1.570768,0.2899885 -0.41272,0.1933256 -0.720743,0.4552441 -0.924068,0.7857656 -0.197055,0.3305215 -0.295682,0.7078127 -0.295682,1.1318837 0,0.2868852 0.05852,0.5487432 0.175558,0.7857152 0.123209,0.230826 0.311108,0.445935 0.563697,0.645527 0.258659,0.199492 0.585193,0.383467 0.979403,0.551927 0.400479,0.168359 0.87789,0.330471 1.432231,0.486337 0.763837,0.218332 1.422976,0.461551 1.977418,0.729656 0.554341,0.268205 1.010255,0.570667 1.367541,0.907385 0.363457,0.330572 0.631373,0.707792 0.803845,1.131863 0.178644,0.417825 0.268015,0.891769 0.268015,1.421933 0,0.55495 -0.110868,1.057004 -0.332704,1.506062 -0.221737,0.448957 -0.539015,0.832525 -0.951736,1.150503 -0.412721,0.318078 -0.908543,0.56442 -1.487666,0.739026 -0.572853,0.168359 -1.213481,0.252589 -1.921883,0.252589 -0.622216,0 -1.235077,-0.08735 -1.838782,-0.261959 -0.597535,-0.174606 -1.14272,-0.436464 -1.635557,-0.785776 -0.486566,-0.349211 -0.87779,-0.779529 -1.173472,-1.290852 -0.289512,-0.517671 -0.434218,-1.116348 -0.434218,-1.79603 h 1.774092 c 0,0.467697 0.08927,0.869905 0.267915,1.206723 0.178644,0.330471 0.421977,0.604923 0.73,0.823155 0.314193,0.218232 0.668394,0.380445 1.062604,0.486438 0.40038,0.09975 0.816186,0.149618 1.247418,0.149618 0.622116,0 1.148791,-0.08725 1.580022,-0.261858 0.431232,-0.174605 0.757667,-0.424071 0.979503,-0.748396 0.227907,-0.324224 0.341861,-0.707792 0.341861,-1.150604 z m 7.99267,-6.6789822 V 11.118981 H 37.792015 V 9.7907088 Z M 39.621541,7.3305125 h 1.709502 V 17.405187 c 0,0.342964 0.05235,0.6018 0.157047,0.776405 0.104698,0.174606 0.240248,0.289969 0.40655,0.346088 0.166303,0.05612 0.344946,0.08423 0.53593,0.08423 0.14172,0 0.289512,-0.01249 0.443573,-0.03748 0.160132,-0.03113 0.280256,-0.05612 0.360372,-0.07476 l 0.0092,1.412462 c -0.135451,0.04363 -0.314094,0.08423 -0.53593,0.121609 -0.215566,0.04363 -0.477411,0.06549 -0.785334,0.06549 -0.418891,0 -0.803945,-0.08423 -1.155061,-0.252589 -0.351116,-0.168359 -0.631372,-0.448957 -0.840867,-0.841895 -0.203226,-0.399085 -0.304938,-0.935395 -0.304938,-1.608931 z m 4.943493,7.6331175 v -0.215109 c 0,-0.729656 0.104698,-1.406316 0.314193,-2.029878 0.209396,-0.62991 0.511248,-1.175591 0.905557,-1.637041 0.39421,-0.467698 0.871621,-0.829402 1.432133,-1.0851144 0.560611,-0.2619085 1.188898,-0.3928677 1.88506,-0.3928677 0.702232,0 1.333604,0.1309592 1.894216,0.3928677 0.566682,0.2557124 1.047178,0.6174164 1.441387,1.0851144 0.40048,0.46145 0.705318,1.007131 0.914813,1.637041 0.209396,0.623562 0.314194,1.300222 0.314194,2.029878 v 0.215109 c 0,0.729656 -0.104798,1.406316 -0.314194,2.029979 -0.209495,0.623563 -0.514333,1.169243 -0.914813,1.63694 -0.394209,0.461552 -0.87162,0.823256 -1.432132,1.085115 -0.554441,0.255712 -1.182827,0.383568 -1.88506,0.383568 -0.702232,0 -1.333604,-0.127856 -1.894216,-0.383568 -0.560512,-0.261859 -1.041008,-0.623563 -1.441388,-1.085115 -0.394309,-0.467697 -0.696161,-1.013377 -0.905557,-1.63694 -0.209495,-0.623663 -0.314193,-1.300323 -0.314193,-2.029979 z m 1.709402,-0.215109 v 0.215109 c 0,0.505177 0.05852,0.982245 0.175558,1.431302 0.117039,0.442711 0.292597,0.835649 0.526675,1.178614 0.240248,0.342964 0.539015,0.614293 0.896301,0.813785 0.357287,0.193346 0.773093,0.290069 1.247418,0.290069 0.468155,0 0.87789,-0.09672 1.229006,-0.290069 0.357287,-0.199492 0.652969,-0.470821 0.887047,-0.813785 0.234077,-0.342965 0.409635,-0.735903 0.526674,-1.178614 0.123209,-0.449057 0.184814,-0.926125 0.184814,-1.431302 v -0.215109 c 0,-0.49893 -0.06161,-0.969751 -0.184814,-1.412462 -0.117039,-0.449057 -0.295682,-0.845018 -0.53593,-1.188083 -0.234078,-0.349212 -0.52976,-0.623563 -0.887046,-0.823156 -0.351116,-0.199592 -0.763837,-0.299338 -1.238162,-0.299338 -0.468155,0 -0.880976,0.09975 -1.238163,0.299338 -0.351215,0.199593 -0.646897,0.473944 -0.887145,0.823156 -0.234078,0.343065 -0.409636,0.739026 -0.526675,1.188083 -0.117038,0.442711 -0.175558,0.913532 -0.175558,1.412462 z M 57.519708,11.38094 v 8.531193 H 55.810207 V 9.7907088 h 1.663223 z m 3.123123,-1.6463609 -0.0093,1.6089809 C 60.49191,11.31233 60.35636,11.29369 60.22698,11.28744 60.103771,11.27495 59.962051,11.2687 59.801919,11.2687 c -0.39421,0 -0.742241,0.06237 -1.044093,0.187099 -0.301853,0.124732 -0.557527,0.299338 -0.766922,0.523817 -0.209496,0.224478 -0.375798,0.492684 -0.499007,0.804515 -0.117039,0.305585 -0.19407,0.642303 -0.230993,1.010255 l -0.480495,0.280598 c 0,-0.61117 0.05852,-1.18486 0.175558,-1.72117 0.123209,-0.536311 0.311108,-1.010255 0.563696,-1.421832 0.25249,-0.417825 0.572853,-0.74215 0.960892,-0.9728749 0.394309,-0.2370022 0.862464,-0.3554882 1.404565,-0.3554882 0.123209,0 0.26483,0.015586 0.425061,0.04677 0.160132,0.024947 0.271001,0.053006 0.332605,0.084189 z m 4.555355,9.1298189 2.781262,-9.0736892 h 1.829526 L 65.798805,21.474314 c -0.09236,0.249465 -0.215566,0.51757 -0.369627,0.804516 -0.147791,0.293091 -0.338776,0.570566 -0.572853,0.832525 -0.234077,0.261858 -0.517419,0.473944 -0.850123,0.636056 C 63.679767,23.91577 63.288543,24 62.832729,24 c -0.13555,0 -0.308022,-0.01874 -0.517418,-0.05612 -0.209496,-0.03748 -0.357287,-0.06861 -0.443573,-0.0936 l -0.0093,-1.403091 c 0.04936,0.0062 0.126295,0.01249 0.231092,0.01864 0.110868,0.01249 0.187799,0.01874 0.230992,0.01874 0.388039,0 0.717659,-0.053 0.988659,-0.158989 0.271,-0.09985 0.499007,-0.271329 0.683721,-0.514547 0.190984,-0.236972 0.354202,-0.56432 0.489752,-0.982144 z M 63.156178,9.7907088 65.752627,17.648405 66.1961,19.472445 64.967193,20.108602 61.289629,9.7907088 Z M 75.593335,14.96363 v -0.215109 c 0,-0.729656 0.104698,-1.406316 0.314193,-2.029878 0.209396,-0.62991 0.511248,-1.175591 0.905458,-1.637041 0.394309,-0.467698 0.871719,-0.829402 1.432231,-1.0851144 0.560612,-0.2619085 1.188899,-0.3928677 1.884961,-0.3928677 0.702332,0 1.333704,0.1309592 1.894216,0.3928677 0.566782,0.2557124 1.047277,0.6174164 1.441487,1.0851144 0.40038,0.46145 0.705318,1.007131 0.914813,1.637041 0.209396,0.623562 0.314094,1.300222 0.314094,2.029878 v 0.215109 c 0,0.729656 -0.104698,1.406316 -0.314094,2.029979 -0.209495,0.623563 -0.514433,1.169243 -0.914813,1.63694 -0.39421,0.461552 -0.87162,0.823256 -1.432232,1.085115 -0.554341,0.255712 -1.182728,0.383568 -1.88496,0.383568 -0.702232,0 -1.333605,-0.127856 -1.894216,-0.383568 -0.560612,-0.261859 -1.041008,-0.623563 -1.441487,-1.085115 -0.39421,-0.467697 -0.696062,-1.013377 -0.905458,-1.63694 -0.209495,-0.623663 -0.314193,-1.300323 -0.314193,-2.029979 z m 1.709402,-0.215109 v 0.215109 c 0,0.505177 0.05852,0.982245 0.175558,1.431302 0.117039,0.442711 0.292597,0.835649 0.526674,1.178614 0.240248,0.342964 0.539015,0.614293 0.896302,0.813785 0.357287,0.193346 0.773093,0.290069 1.247418,0.290069 0.468155,0 0.87779,-0.09672 1.228907,-0.290069 0.357286,-0.199492 0.652968,-0.470821 0.887046,-0.813785 0.234077,-0.342965 0.409635,-0.735903 0.526674,-1.178614 0.123209,-0.449057 0.184814,-0.926125 0.184814,-1.431302 v -0.215109 c 0,-0.49893 -0.06161,-0.969751 -0.184814,-1.412462 -0.117039,-0.449057 -0.295682,-0.845018 -0.53583,-1.188083 -0.234177,-0.349212 -0.529859,-0.623563 -0.887146,-0.823156 -0.351116,-0.199592 -0.763837,-0.299338 -1.238162,-0.299338 -0.468155,0 -0.880876,0.09975 -1.238163,0.299338 -0.351116,0.199593 -0.646798,0.473944 -0.887046,0.823156 -0.234077,0.343065 -0.409635,0.739026 -0.526674,1.188083 -0.117039,0.442711 -0.175558,0.913532 -0.175558,1.412462 z M 88.54791,11.951607 v 7.960526 H 86.838507 V 9.7907088 h 1.617046 z m -0.406551,2.516316 -0.711488,-0.02811 c 0.0062,-0.692176 0.107883,-1.331456 0.304938,-1.917639 0.197154,-0.59243 0.474325,-1.106877 0.831612,-1.543442 0.357286,-0.436564 0.782348,-0.773282 1.275185,-1.0102539 0.498907,-0.2432489 1.050263,-0.3648582 1.653968,-0.3648582 0.492737,0 0.93631,0.068593 1.330519,0.2057988 0.394309,0.1309492 0.729999,0.3430353 1.00717,0.6361263 0.283441,0.293092 0.499007,0.673436 0.646798,1.141234 0.147891,0.461451 0.221837,1.025871 0.221837,1.69306 v 6.632294 H 92.98324 V 13.2612 c 0,-0.530064 -0.07703,-0.954135 -0.230993,-1.272213 -0.154061,-0.324326 -0.378883,-0.558174 -0.674565,-0.701546 -0.295682,-0.14972 -0.659139,-0.22458 -1.090371,-0.22458 -0.424962,0 -0.8131,0.09048 -1.164217,0.271329 -0.344945,0.180853 -0.643713,0.430318 -0.896301,0.748296 -0.246419,0.318078 -0.440388,0.682906 -0.582109,1.094484 -0.13555,0.405331 -0.203325,0.835649 -0.203325,1.290953 z M 99.155938,5.5438224 V 19.912133 H 97.436981 V 5.5438224 Z m 4.600932,4.2468864 V 19.912133 h -1.71875 V 9.7907088 Z m -1.84813,-2.6847051 c 0,-0.2806284 0.0836,-0.5176104 0.2498,-0.710936 0.17217,-0.1933156 0.42496,-0.2899784 0.75737,-0.2899784 0.32643,0 0.57623,0.096663 0.74841,0.2899784 0.17914,0.1933256 0.26871,0.4303076 0.26871,0.710936 0,0.2681552 -0.0896,0.4989006 -0.26871,0.6922262 -0.17218,0.1870789 -0.42198,0.2806284 -0.74841,0.2806284 -0.33241,0 -0.5852,-0.093549 -0.75737,-0.2806284 -0.1662,-0.1933256 -0.2498,-0.424071 -0.2498,-0.6922262 z m 6.30178,4.8456033 v 7.960526 h -1.70881 V 9.7907088 h 1.61724 z m -0.40606,2.516316 -0.71158,-0.02811 c 0.006,-0.692176 0.10748,-1.331456 0.30453,-1.917639 0.19706,-0.59243 0.47473,-1.106877 0.83201,-1.543442 0.35729,-0.436564 0.78225,-0.773282 1.27489,-1.0102539 0.49961,-0.2432489 1.05096,-0.3648582 1.65407,-0.3648582 0.49264,0 0.93651,0.068593 1.33062,0.2057988 0.39411,0.1309492 0.73049,0.3430353 1.00717,0.6361263 0.28364,0.293092 0.49861,0.673436 0.6469,1.141234 0.14828,0.461451 0.22193,1.025871 0.22193,1.69306 v 6.632294 h -1.71876 V 13.2612 c 0,-0.530064 -0.0766,-0.954135 -0.23089,-1.272213 -0.15426,-0.324326 -0.37918,-0.558174 -0.67476,-0.701546 -0.29559,-0.14972 -0.65884,-0.22458 -1.09077,-0.22458 -0.42496,0 -0.8131,0.09048 -1.16342,0.271329 -0.34535,0.180853 -0.64392,0.430318 -0.8967,0.748296 -0.24682,0.318078 -0.43989,0.682906 -0.58221,1.094484 -0.13535,0.405331 -0.20303,0.835649 -0.20303,1.290953 z m 13.3052,5.631309 c -0.69567,0 -1.32664,-0.118486 -1.89392,-0.355458 -0.56031,-0.243219 -1.04399,-0.58306 -1.45104,-1.019625 -0.40008,-0.436564 -0.70761,-0.954134 -0.92357,-1.552811 -0.21597,-0.598677 -0.32345,-1.253473 -0.32345,-1.96449 v -0.392837 c 0,-0.823155 0.12042,-1.555935 0.36027,-2.198238 0.24085,-0.64865 0.56728,-1.197454 0.9793,-1.646411 0.41302,-0.449058 0.88078,-0.788899 1.40526,-1.019624 0.52349,-0.2307454 1.0649,-0.3461181 1.62621,-0.3461181 0.71457,0 1.33061,0.1247226 1.84813,0.3741275 0.52349,0.2494656 0.95144,0.5986766 1.28385,1.0477346 0.3324,0.442811 0.57922,0.966628 0.73945,1.571551 C 124.92038,13.19571 125,13.850506 125,14.561422 v 0.776406 h -7.4662 v -1.412462 h 5.75739 v -0.130979 c -0.0249,-0.449058 -0.11743,-0.885522 -0.27766,-1.309593 -0.15426,-0.424071 -0.40009,-0.773282 -0.73946,-1.047734 -0.33837,-0.274352 -0.80016,-0.411578 -1.38535,-0.411578 -0.38814,0 -0.74543,0.08423 -1.07186,0.252589 -0.32644,0.162112 -0.60709,0.405331 -0.84097,0.729656 -0.23388,0.324224 -0.41601,0.720286 -0.54539,1.187983 -0.12937,0.467697 -0.19406,1.007131 -0.19406,1.618301 v 0.392837 c 0,0.480191 0.0647,0.932372 0.19406,1.356443 0.13536,0.417825 0.32942,0.785776 0.58221,1.103754 0.25876,0.318078 0.56927,0.567544 0.93353,0.748396 0.36923,0.180852 0.78822,0.271228 1.25597,0.271228 0.60411,0 1.11565,-0.124733 1.53464,-0.374097 0.418,-0.249466 0.78524,-0.583161 1.09873,-1.000985 l 1.03504,0.832525 c -0.21497,0.330572 -0.48965,0.645527 -0.82206,0.944865 -0.3324,0.299339 -0.74244,0.542557 -1.2291,0.729656 -0.4807,0.186999 -1.04997,0.280599 -1.7098,0.280599 z"
     fill="#ffffff"
     id="path2"
     style="stroke-width:1.00136" />
  <mask
     id="path-3-inside-1_56276_666"
     fill="#ffffff">
    <path
       fill-rule="evenodd"
       clip-rule="evenodd"
       d="m 80.672,15.8416 c 0.1803,0.3949 0.1803,0.3949 0,0 z m 2.073,3.6287 c 0.2862,-0.1637 0.5614,-0.8933 0.4166,-1.1885 -0.5052,-1.0296 -0.8765,-2.1357 -1.2365,-3.2483 -0.066,-0.2041 -0.162,-0.4067 -0.338,-0.5082 -0.2195,-0.1268 -0.417,-0.0859 -0.6081,0.0028 -0.1546,0.0717 -0.2898,0.1859 -0.4239,0.2973 -0.4083,0.3392 -0.7416,0.49 -0.5208,0.7982 0.1245,0.1737 0.2827,0.3181 0.3921,0.5036 0.5978,1.0139 1.0589,1.9854 1.4183,2.9917 0.1362,0.3815 0.5513,0.5509 0.9003,0.3514 z m -4.2313,-8.3549 c 0.1803,0.3949 0.1803,0.3949 0,0 z M 77.8496,9.66124 C 77.6825,8.83985 76.8535,7.47994 76.3554,6.3893 c 0.4981,1.09064 0.9132,1.99952 1.5772,3.45371 z m 0.6598,0.24161 C 78.741,9.59363 78.987,9.10745 78.8209,8.77386 78.3672,7.86236 77.9984,6.79339 77.6067,5.62867 77.4882,5.27633 77.2683,4.8907 76.9189,4.9745 c -0.0858,0.02058 -0.1716,0.0563 -0.2574,0.09909 -0.1528,0.07626 -0.2889,0.18815 -0.423,0.29958 -0.414,0.34394 -0.751,0.49414 -0.5111,0.81131 0.1221,0.16131 0.2715,0.29851 0.3769,0.47331 0.5733,0.95117 1.0891,2.05493 1.4681,3.13747 0.1101,0.31474 0.452,0.45374 0.7391,0.28964 0.0062,-0.0036 0.0124,-0.0071 0.0185,-0.0106 0.0647,-0.037 0.1332,-0.10975 0.1794,-0.17145 z M 75.7744,5.11688 C 75.7192,4.99611 75.6798,4.86771 75.6421,4.73858 75.4,3.9083 74.6573,2.67081 74.1972,1.66316 c 0.498,1.09065 0.9131,1.99952 1.5772,3.45372 z M 76.3526,5.01687 C 76.6485,4.85553 76.8536,4.42429 76.7012,4.12442 76.2297,3.19641 75.8512,2.10009 75.4484,0.902539 75.3299,0.550197 75.11,0.164566 74.7606,0.248368 74.6748,0.268951 74.589,0.304661 74.5033,0.347454 74.3504,0.423717 74.2154,0.537548 74.0763,0.641465 73.6136,0.987222 73.2074,1.02765 73.6291,1.50869 c 0.098,0.11177 0.1964,0.22507 0.2749,0.35376 0.5966,0.97722 1.1336,2.12265 1.5228,3.24322 0.1028,0.29569 0.4518,0.4539 0.6518,0.20396 0.009,-0.01122 0.0177,-0.02266 0.0259,-0.03431 0.0682,-0.09607 0.1483,-0.20406 0.2481,-0.25845 z m 0.4246,5.02833 C 76.1165,9.96449 75.6207,9.78952 74.96,9.70883 75.6207,9.78952 76.0335,9.78272 76.7772,10.0452 76.6923,10.0152 76.6093,9.98591 76.5277,9.95724 76.3189,9.88376 76.3205,9.884 76.5293,9.95769 75.4547,9.42597 74.546,9.25779 73.7193,8.81355 74.463,9.07602 75.2067,9.33848 76.2814,9.87021 75.3716,9.24419 74.38,8.89424 73.3884,8.54429 c 0.9916,0.34995 2.0663,0.88168 3.3888,1.50091 0.2479,0.0875 0.2479,0.0875 0,0 z m -0.3298,0.1886 -0.2479,-0.0875 c -0.137,0.0022 -0.272,0.0033 -0.4051,0.0036 -0.4577,0.0012 -0.4655,0.053 -0.0077,0.0032 -0.3478,0.0378 -0.3417,0.1514 0.0061,0.1137 0.0805,-0.0087 0.1612,-0.0175 0.2418,-0.0262 -0.8256,0.0136 -1.5682,0.2089 -2.3108,0.4043 0.2919,-0.0318 0.5622,-0.0712 0.8195,-0.1113 0.1584,-0.0247 0.1641,0.07 0.0061,0.0977 0.5777,-0.1011 1.1554,-0.2022 1.7331,-0.3033 0.1649,-0.0942 0.1649,-0.0942 0.1649,-0.0942 z m 0.4981,1.0906 c -0.3298,0.1886 -0.5766,0.5589 -1.0713,0.8418 0.3298,-0.1886 0.5766,-0.5589 1.0713,-0.8418 -0.4947,0.2829 -1.0713,0.8418 -1.566,1.1246 0.4947,-0.2828 0.9064,-0.7475 1.4011,-1.0303 -0.6596,0.3771 -1.3192,0.7543 -1.8958,1.3132 0.4117,-0.4646 1.0713,-0.8418 1.7309,-1.2189 -0.6596,0.3771 -1.3192,0.7543 -1.9788,1.1314 0.6596,-0.3771 1.4011,-1.0303 2.2256,-1.5018 0.1649,-0.0943 0.2479,0.0875 0.083,0.1818 z m 0.083,0.1818 c -0.1088,0.0622 -0.2064,0.1464 -0.2857,0.2487 -0.5984,0.7722 -1.0517,1.4614 -1.3599,2.0676 0.0263,-0.0518 0.0537,-0.1042 0.0821,-0.1571 0.1564,-0.2916 0.2328,-0.2323 0.0828,0.0629 0.3286,-0.6464 0.8222,-1.3871 1.1509,-2.0336 -0.3287,0.6465 -0.4925,1.1986 -0.7393,1.5689 0.1537,-0.2305 0.339,-0.568 0.5363,-0.9459 0.045,-0.0861 0.0671,0.0358 0.0253,0.1236 -0.0391,0.0824 0.0219,-10e-5 0.0495,-0.0872 0.0766,-0.2412 0.1319,-0.49 0.2659,-0.7109 0.0173,-0.0285 0.0417,-0.051 0.0695,-0.0669 z m 0.4117,-0.4647 c 0.0098,-0.0055 0.019,-0.0108 0.0276,-0.0158 0.1669,-0.0954 0.3195,-0.0276 0.4887,0.0432 0.0661,0.0277 0.1654,0.0877 0.2038,0.1513 0.6767,1.1228 1.1847,2.1887 1.5712,3.3007 0.1095,0.315 0.4512,0.4542 0.7383,0.2901 0.0062,-0.0036 0.0124,-0.0071 0.0184,-0.0106 0.0648,-0.037 0.1332,-0.1097 0.1795,-0.1714 0.2316,-0.3092 0.4776,-0.7954 0.3115,-1.129 C 80.5255,12.5885 80.1567,11.5195 79.765,10.3548 79.6465,10.0025 79.4266,9.61683 79.0772,9.70064 78.9375,9.73413 78.7979,9.8077 78.6584,9.88666 78.6153,9.91104 78.5763,9.9437 78.5411,9.98027 78.4141,10.1123 78.2883,10.2035 78.1735,10.2754 77.9789,10.3973 77.3681,10.4283 77.273,10.2202 77.2059,10.0731 77.0308,9.98778 76.7473,9.7218 76.5972,9.58098 76.4359,9.45294 76.2517,9.3679 75.474,9.0089 74.4594,8.63332 73.6414,8.3942 73.3081,8.29677 72.947,8.42913 73.2235,8.64492 c 0.3685,0.28776 0.3793,1.28699 -0.0823,1.39168 -0.0531,0.012 -0.1055,0.0248 -0.1572,0.0382 -0.3582,0.093 -0.3571,0.489 0.0021,0.5352 1.2121,0.1558 3.1455,0.0311 3.8984,-0.1836 0.04,-0.0114 0.0773,-0.0305 0.1178,-0.0384 0.0113,-0.0022 0.0237,-0.0037 0.0367,-0.0037 0.1277,0 0.2196,0.1333 0.3376,0.1798 0.0241,0.0095 0.0479,0.0193 0.071,0.0294 0.2114,0.0925 0.1804,0.3891 -0.0522,0.3951 -0.1154,0.003 -0.262,-9e-4 -0.3661,0.0586 -0.0612,0.035 -0.1395,0.0798 -0.2351,0.1345 -0.0642,0.0367 -0.1315,0.0657 -0.2,0.0903 -0.7143,0.2566 -1.5125,0.8277 -2.0854,1.3213 -0.1686,0.1453 -0.2433,0.3846 -0.0332,0.3577 0.3195,-0.0411 0.924,0.5327 0.7587,0.837 -0.1212,0.2233 0.0702,0.3336 0.2516,0.1628 0.5902,-0.5557 1.2666,-1.6461 1.5228,-2.3392 0.0856,-0.2317 0.2261,-0.4526 0.4315,-0.5701 z"
       id="path6" />
  </mask>
  <path
     fill-rule="evenodd"
     clip-rule="evenodd"
     d="m 78.658237,15.722404 c 0.179439,0.397875 0.179439,0.397875 0,0 z m 2.063106,3.656038 c 0.284834,-0.164933 0.55872,-0.90003 0.414611,-1.197454 -0.502788,-1.037357 -0.872316,-2.15179 -1.230598,-3.272773 -0.06569,-0.205637 -0.161227,-0.409764 -0.336387,-0.512028 -0.218452,-0.127756 -0.41501,-0.08655 -0.605198,0.0028 -0.153862,0.07224 -0.288417,0.1873 -0.421877,0.29954 -0.406351,0.341755 -0.73806,0.493691 -0.518314,0.804213 0.123906,0.175009 0.281351,0.320497 0.390229,0.507394 0.594947,1.021539 1.053846,2.000358 1.411531,3.014239 0.13555,0.384375 0.548668,0.555051 0.896003,0.354048 z m -4.211105,-8.417845 c 0.179439,0.397875 0.179439,0.397875 0,0 z M 75.849307,9.4954813 C 75.683005,8.667903 74.857961,7.2977475 74.362238,6.1988907 c 0.495723,1.0988568 0.908842,2.0145842 1.569673,3.47973 z m 0.656651,0.2434302 C 76.736453,9.4273619 76.981279,8.937519 76.815971,8.6014158 76.364437,7.6830486 75.997397,6.6060251 75.607566,5.4325302 75.489632,5.0775357 75.270781,4.6890004 74.923049,4.7734317 c -0.08539,0.020735 -0.170781,0.056724 -0.256171,0.099837 -0.152071,0.076834 -0.287522,0.1895675 -0.420982,0.301837 -0.412024,0.3465312 -0.747415,0.4978628 -0.50866,0.8174223 0.121517,0.1625253 0.270204,0.300759 0.375101,0.4768759 0.570564,0.958336 1.083902,2.0704117 1.461093,3.1611074 0.109575,0.3171113 0.449843,0.4571577 0.735573,0.2918222 0.0062,-0.00363 0.01234,-0.00715 0.01841,-0.01068 0.06439,-0.037279 0.132565,-0.1105768 0.178545,-0.172742 z M 73.784011,4.9168844 c -0.05494,-0.1216799 -0.09415,-0.2510472 -0.131668,-0.3811501 -0.240945,-0.8365352 -0.9801,-2.0833484 -1.438004,-3.0985899 0.495623,1.0988668 0.908742,2.0145842 1.569672,3.47974 z M 74.359452,4.8161209 C 74.65394,4.6535654 74.858061,4.2190765 74.706388,3.9169473 74.237138,2.9819457 73.860445,1.8773662 73.459567,0.6707929 73.341633,0.31579638 73.122782,-0.07273993 72.77505,0.01169343 c -0.08539,0.02073807 -0.170781,0.05671711 -0.256072,0.0998325 -0.15217,0.0768376 -0.286526,0.19152616 -0.424962,0.29622606 -0.460492,0.3483619 -0.864753,0.38909449 -0.445066,0.87375861 0.09753,0.1126121 0.195463,0.2267657 0.273588,0.3564252 0.593753,0.9845823 1.12819,2.1386419 1.515532,3.2676542 0.10231,0.2979177 0.449644,0.4573196 0.64869,0.2054966 0.009,-0.011305 0.01762,-0.022831 0.02578,-0.034568 0.06787,-0.096794 0.147592,-0.2055974 0.246916,-0.2603972 z m 0.422573,5.0662131 c -0.657546,-0.081318 -1.15098,-0.2576063 -1.808527,-0.3389042 0.657547,0.081298 1.068377,0.074447 1.808527,0.3389042 -0.08449,-0.030226 -0.167098,-0.059737 -0.248309,-0.088623 -0.207803,-0.074034 -0.206211,-0.073792 0.0016,4.534e-4 -1.069471,-0.535726 -1.973834,-0.705173 -2.796588,-1.1527599 0.74015,0.2644475 1.480301,0.5288848 2.549872,1.0646208 -0.905458,-0.6307364 -1.892326,-0.9833229 -2.879193,-1.3359094 0.986867,0.3525865 2.056438,0.8883225 3.372626,1.5122178 0.246717,0.088159 0.246717,0.088159 0,0 z m -0.328226,0.190021 -0.246716,-0.088159 c -0.136347,0.00222 -0.270702,0.00332 -0.403167,0.00363 -0.455516,0.00121 -0.463278,0.053399 -0.0077,0.00322 -0.34614,0.038085 -0.340069,0.152541 0.0061,0.114556 0.08012,-0.0088 0.16043,-0.01763 0.240646,-0.0264 -0.82166,0.0137 -1.560716,0.210474 -2.299772,0.407346 0.290507,-0.03204 0.559517,-0.07174 0.815589,-0.112138 0.157644,-0.02489 0.163317,0.07053 0.0061,0.09844 0.574943,-0.101862 1.149886,-0.203724 1.724828,-0.305585 0.164113,-0.09491 0.164113,-0.09491 0.164113,-0.09491 z m 0.495723,1.098816 c -0.328226,0.190021 -0.573848,0.563111 -1.066187,0.848142 0.328226,-0.19002 0.573848,-0.56311 1.066187,-0.848142 -0.492339,0.285032 -1.066187,0.848142 -1.558526,1.133073 0.492339,-0.284931 0.902074,-0.753132 1.394413,-1.038062 -0.656452,0.379941 -1.312904,0.759983 -1.886752,1.323093 0.409735,-0.4681 1.066187,-0.848142 1.722639,-1.228083 -0.656452,0.379941 -1.312904,0.759983 -1.969356,1.139924 0.656452,-0.379941 1.394413,-1.038062 2.214978,-1.513114 0.164113,-0.09501 0.246717,0.08816 0.0826,0.183169 z m 0.0826,0.18317 c -0.108281,0.06267 -0.205415,0.147503 -0.284336,0.250574 -0.595545,0.778017 -1.046681,1.47241 -1.35341,2.083177 0.02617,-0.05219 0.05344,-0.104985 0.08171,-0.158284 0.155654,-0.293797 0.231689,-0.23405 0.0824,0.06337 0.327032,-0.65127 0.818276,-1.39755 1.145407,-2.048921 -0.327131,0.651371 -0.490149,1.20763 -0.735772,1.58072 0.152967,-0.232236 0.337382,-0.572279 0.533741,-0.953026 0.04479,-0.08675 0.06678,0.03607 0.02518,0.124531 -0.03891,0.08302 0.0218,-1.01e-4 0.04926,-0.08786 0.07623,-0.243017 0.13127,-0.493692 0.264631,-0.716256 0.01722,-0.02872 0.0415,-0.05138 0.06917,-0.0674 z m 0.409735,-0.468201 c 0.0098,-0.0055 0.01891,-0.01088 0.02747,-0.01592 0.166104,-0.09612 0.317975,-0.02781 0.486368,0.04352 0.06578,0.02791 0.16461,0.08836 0.202827,0.15244 0.67347,1.131259 1.179046,2.20519 1.563701,3.325568 0.108978,0.317373 0.449047,0.457621 0.734777,0.292285 0.0062,-0.0036 0.01234,-0.0072 0.01831,-0.01068 0.06449,-0.03728 0.132564,-0.110526 0.178643,-0.172691 0.230495,-0.31153 0.475321,-0.801393 0.310013,-1.137506 -0.451534,-0.918367 -0.818574,-1.995421 -1.208405,-3.168896 -0.117934,-0.3549537 -0.336785,-0.7435293 -0.684517,-0.6590879 -0.139033,0.033742 -0.277967,0.1078666 -0.416801,0.1874214 -0.04289,0.024564 -0.08171,0.05747 -0.11674,0.094315 -0.126394,0.1330247 -0.251594,0.2249125 -0.365846,0.2973535 -0.193671,0.122819 -0.801556,0.154052 -0.896202,-0.05562 C 75.208675,9.9104442 75.034411,9.8244814 74.752264,9.5564975 74.60288,9.4146166 74.44235,9.2856119 74.259029,9.1999313 73.485041,8.8382266 72.475284,8.459817 71.661188,8.2188955 c -0.33171,-0.098164 -0.691086,0.035193 -0.415906,0.2526089 0.366741,0.2899279 0.37749,1.2966861 -0.08191,1.4021648 -0.05285,0.01209 -0.104997,0.024987 -0.15645,0.038488 -0.35649,0.093701 -0.355395,0.4926838 0.0021,0.5392318 1.206315,0.156974 3.130488,0.03133 3.879794,-0.184983 0.03981,-0.01149 0.07693,-0.03073 0.117238,-0.03869 0.01125,-0.0022 0.02359,-0.0037 0.03652,-0.0037 0.12709,0 0.218552,0.134304 0.335989,0.181154 0.02399,0.0096 0.04767,0.01945 0.07066,0.02962 0.210391,0.0932 0.179539,0.392031 -0.05195,0.398076 -0.114849,0.003 -0.26075,-9.06e-4 -0.364353,0.05904 -0.06091,0.03526 -0.138834,0.0804 -0.233978,0.135513 -0.06389,0.03698 -0.130872,0.0662 -0.199045,0.09098 -0.710891,0.258533 -1.505282,0.833935 -2.075447,1.331254 -0.167796,0.146395 -0.242139,0.387498 -0.03304,0.360395 0.317975,-0.04141 0.91959,0.536713 0.755079,0.843306 -0.120621,0.224982 0.06987,0.336113 0.250399,0.164026 0.587383,-0.559886 1.260555,-1.658501 1.515532,-2.356823 0.08519,-0.233446 0.225021,-0.45601 0.429441,-0.574395 z"
     fill="#ffffff"
     id="path9"
     style="stroke-width:1.00136" />
</svg>
