<?xml version="1.0" encoding="UTF-8" standalone="no"?>
<svg
   width="20"
   height="20"
   viewBox="0 0 20 20"
   fill="none"
   version="1.1"
   id="svg6"
   sodipodi:docname="progressbar-circle_320.svg"
   inkscape:version="1.1.2 (b8e25be833, 2022-02-05)"
   xmlns:inkscape="http://www.inkscape.org/namespaces/inkscape"
   xmlns:sodipodi="http://sodipodi.sourceforge.net/DTD/sodipodi-0.dtd"
   xmlns="http://www.w3.org/2000/svg"
   xmlns:svg="http://www.w3.org/2000/svg">
  <defs
     id="defs10" />
  <sodipodi:namedview
     id="namedview8"
     pagecolor="#ffffff"
     bordercolor="#666666"
     borderopacity="1.0"
     inkscape:pageshadow="2"
     inkscape:pageopacity="0.0"
     inkscape:pagecheckerboard="0"
     showgrid="false"
     fit-margin-top="0"
     fit-margin-left="0"
     fit-margin-right="0"
     fit-margin-bottom="0"
     inkscape:zoom="17.975"
     inkscape:cx="19.972184"
     inkscape:cy="19.972184"
     inkscape:window-width="1920"
     inkscape:window-height="1091"
     inkscape:window-x="-8"
     inkscape:window-y="-8"
     inkscape:window-maximized="1"
     inkscape:current-layer="svg6" />
  <path
     fill-rule="evenodd"
     clip-rule="evenodd"
     d="m 15.7387,9.99995 c 0,3.17195 -2.56655,5.7385 -5.7385,5.7385 -3.1719,0 -5.73848,-2.56655 -5.73848,-5.7385 0,-3.1719 2.56658,-5.738475 5.73848,-5.738475 3.17195,0 5.7385,2.566575 5.7385,5.738475 z m -5.7385,-4.8426 c 2.68765,0 4.86685,2.15495 4.86685,4.8426 0,2.68765 -2.1792,4.86685 -4.86685,4.86685 -2.68765,0 -4.8426,-2.1792 -4.8426,-4.86685 0,-2.68765 2.15495,-4.8426 4.8426,-4.8426 z"
     fill="#fe9013"
     id="path2"
     style="stroke-width:0.5" />
  <path
     fill-rule="evenodd"
     clip-rule="evenodd"
     d="M 10,0 C 15.5206,0 20,4.47942 20,10 20,15.5206 15.5206,20 10,20 4.47942,20 0,15.5206 0,10 0,4.47942 4.47942,0 10,0 Z m 0,0.895885 c 5.0363,0 9.12835,4.067795 9.12835,9.104115 0,5.0363 -4.09205,9.12835 -9.12835,9.12835 C 4.96368,19.12835 0.895885,15.0363 0.895885,10 0.895885,4.96368 4.96368,0.895885 10,0.895885 Z"
     fill="#fe9013"
     id="path4"
     style="stroke-width:0.5" />
</svg>
